<svg width="38" height="36" viewBox="0 0 38 36" fill="none" xmlns="http://www.w3.org/2000/svg">
<path fill-rule="evenodd" clip-rule="evenodd" d="M26.5547 0.698661L2.50537 8.66153C0.851982 9.20898 -0.052882 11.0097 0.494565 12.6631L7.46208 33.7062C8.00952 35.3596 9.81021 36.2645 11.4636 35.717L35.5129 27.7542C37.1663 27.2067 38.0712 25.406 37.5237 23.7526L30.5562 2.70947C30.0088 1.05608 28.2081 0.151214 26.5547 0.698661ZM18.4914 26.7186L10.976 29.207L9.98061 26.2009L17.496 23.7125L18.4914 26.7186ZM16.5007 20.7063L8.98525 23.1947L7.98989 20.1885L15.5053 17.7001L16.5007 20.7063ZM14.51 14.694L6.99453 17.1824L5.99917 14.1762L13.5146 11.6878L14.51 14.694ZM24.7409 21.3136L19.0888 18.4483L20.5064 15.6273L23.3325 17.0599L26.5196 10.7175L29.3607 12.1452L24.7409 21.3136Z" fill="white"/>
</svg>
