<svg width="4378" height="4389" viewBox="0 0 4378 4389" fill="none" xmlns="http://www.w3.org/2000/svg">
<rect x="-1.03122" y="-2.63664" width="2730.9" height="2735.72" rx="24.179" transform="matrix(0.915706 0.40185 -0.400097 0.916473 1494.48 425.688)" fill="#FFA59A" stroke="#FFA59A" stroke-width="4"/>
<path d="M4357.97 1325.43C4370.2 1330.8 4375.78 1345.07 4370.43 1357.3L3055.48 4369.37C3050.14 4381.61 3035.9 4387.18 3023.67 4381.81L19.5087 3063.46C7.28078 3058.1 1.69959 3043.83 7.04233 3031.59L1321.99 19.5225C1327.34 7.28435 1341.58 1.71361 1353.81 7.07956L4357.97 1325.43Z" stroke="#FFA59A" stroke-width="4"/>
<mask id="mask0_36_5" style="mask-type:alpha" maskUnits="userSpaceOnUse" x="402" y="428" width="3585" height="3594">
<rect x="-1.03122" y="-2.63664" width="2730.9" height="2735.72" rx="24.179" transform="matrix(0.915706 0.40185 -0.400097 0.916473 1490.84 425.688)" fill="#FFA59A" stroke="white" stroke-width="4"/>
</mask>
<g mask="url(#mask0_36_5)">
<path d="M442.6 1255.54C770.607 1437.56 1524.66 1692.4 1916.82 1255.54C2407.01 709.456 3361.99 818.672 3797.71 953.372" stroke="#FFA59A"/>
<path d="M451.312 1460.19C790.124 1621.1 1558.72 1827.71 1922.59 1366.9C2377.43 790.891 3337.38 839.46 3780.72 946.319" stroke="#FFA59A"/>
<path d="M410.423 1667.62C749.235 1828.53 1517.83 2035.15 1881.7 1574.34C2336.54 998.326 3296.49 1046.9 3739.83 1153.75" stroke="#FFA59A"/>
<path d="M366.849 1878.78C705.661 2039.68 1474.25 2246.3 1838.13 1785.49C2292.97 1209.48 3252.91 1258.05 3696.25 1364.91" stroke="#FFA59A"/>
<path d="M366.849 1878.78C705.661 2039.68 1474.25 2246.3 1838.13 1785.49C2292.97 1209.48 3252.91 1258.05 3696.25 1364.91" stroke="#FFA59A"/>
<path d="M453.995 2599.61C833.077 2757.96 1694.25 2958.71 2106.27 2494.84C2621.29 1915.01 3698.48 1956.15 4195.32 2059.62" stroke="#FFA59A"/>
<path d="M366.849 2924.24C745.931 3082.6 1607.1 3283.34 2019.12 2819.48C2534.14 2239.65 3611.33 2280.79 4108.17 2384.26" stroke="#FFA59A"/>
<path d="M381.372 3157.24C760.455 3315.6 1621.62 3516.34 2033.64 3052.48C2548.67 2472.65 3625.86 2513.79 4122.69 2617.25" stroke="#FFA59A"/>
<path d="M490.306 3390.23C869.388 3548.59 1730.56 3749.33 2142.58 3285.47C2657.6 2705.64 3734.79 2746.78 4231.63 2850.25" stroke="#FFA59A"/>
<path d="M671.859 3739.73C1050.94 3898.08 1912.11 4098.83 2324.13 3634.97C2839.16 3055.14 3916.34 3096.27 4413.18 3199.74" stroke="#FFA59A"/>
<path d="M621.025 2381.17C959.837 2542.08 1728.43 2748.69 2092.3 2287.89C2547.15 1711.87 3507.09 1760.44 3950.43 1867.3" stroke="#FFA59A"/>
<path d="M323.277 2119.05C704.651 2277.26 1571.09 2477.67 1985.85 2013.64C2504.3 1433.59 3588.16 1474.3 4088.04 1577.58" stroke="#FFA59A"/>
</g>
</svg>
