<svg width="656" height="725" viewBox="0 0 656 725" fill="none" xmlns="http://www.w3.org/2000/svg">
<rect x="231.765" y="177.09" width="379.337" height="379.337" rx="24.179" transform="rotate(23.639 231.765 177.09)" fill="#FFA59A" stroke="#FFC0B9" stroke-width="4"/>
<rect x="209.331" y="118.653" width="461.67" height="461.67" rx="24.179" transform="rotate(23.639 209.331 118.653)" stroke="#FFA59A" stroke-width="4"/>
<mask id="mask0_36_33" style="mask-type:alpha" maskUnits="userSpaceOnUse" x="84" y="182" width="490" height="490">
<rect x="231.265" y="177.09" width="379.337" height="379.337" rx="24.179" transform="rotate(23.639 231.265 177.09)" fill="#5454D4" stroke="white" stroke-width="4"/>
</mask>
<g mask="url(#mask0_36_33)">
<path d="M87.7949 293.725C132.962 318.725 236.795 353.725 290.795 293.725C358.295 218.725 489.795 233.725 549.795 252.225" stroke="#FFC0B9"/>
<path d="M88.994 321.831C135.648 343.93 241.484 372.307 291.589 309.019C354.221 229.908 486.406 236.579 547.454 251.255" stroke="#FFC0B9"/>
<path d="M83.3641 350.321C130.019 372.42 235.854 400.797 285.959 337.509C348.591 258.398 480.776 265.069 541.824 279.745" stroke="#FFC0B9"/>
<path d="M77.3641 379.321C124.019 401.42 229.854 429.797 279.959 366.509C342.591 287.398 474.776 294.069 535.824 308.745" stroke="#FFC0B9"/>
<path d="M77.3641 379.321C124.019 401.42 229.854 429.797 279.959 366.509C342.591 287.398 474.776 294.069 535.824 308.745" stroke="#FFC0B9"/>
<path d="M89.3641 478.321C141.564 500.07 260.147 527.64 316.882 463.933C387.801 384.298 536.13 389.948 604.545 404.158" stroke="#FFC0B9"/>
<path d="M77.3641 522.909C129.564 544.658 248.147 572.228 304.882 508.521C375.801 428.886 524.13 434.535 592.545 448.746" stroke="#FFC0B9"/>
<path d="M79.3641 554.909C131.564 576.658 250.147 604.228 306.882 540.521C377.801 460.886 526.13 466.535 594.545 480.746" stroke="#FFC0B9"/>
<path d="M94.3641 586.909C146.564 608.658 265.147 636.228 321.882 572.521C392.801 492.886 541.13 498.535 609.545 512.746" stroke="#FFC0B9"/>
<path d="M119.364 634.909C171.564 656.658 290.147 684.228 346.882 620.521C417.801 540.886 566.13 546.535 634.545 560.746" stroke="#FFC0B9"/>
<path d="M112.364 448.321C159.019 470.42 264.854 498.797 314.959 435.509C377.591 356.398 509.776 363.069 570.824 377.745" stroke="#FFC0B9"/>
<path d="M71.3641 412.321C123.879 434.05 243.188 461.575 300.301 397.843C371.691 318.178 520.939 323.77 589.773 337.954" stroke="#FFC0B9"/>
</g>
</svg>
