<svg width="35" height="30" viewBox="0 0 35 30" fill="none" xmlns="http://www.w3.org/2000/svg">
<path d="M1 25.0164H4.63676" stroke="black" stroke-opacity="0.8" stroke-linecap="round" stroke-linejoin="round"/>
<path d="M13.8398 26.2388H26.0607M15.0598 27.4624H18.2799M19.9545 27.4624H24.2741M17.5011 28.6861H20.5645" stroke="black" stroke-linecap="round" stroke-linejoin="round"/>
<path fill-rule="evenodd" clip-rule="evenodd" d="M11.2864 9.61648C11.2519 9.61688 11.2178 9.62411 11.1861 9.63777C11.1544 9.65142 11.1257 9.67122 11.1017 9.69602C11.0777 9.72083 11.0589 9.75015 11.0462 9.78229C11.0336 9.81442 11.0275 9.84871 11.0283 9.88323C11.0283 10.0649 10.9505 10.1475 10.7701 10.1475C10.4152 10.1414 10.4152 10.678 10.7701 10.6725C10.9438 10.6725 11.0283 10.7214 11.0283 10.9258C11.0234 11.2807 11.5581 11.2807 11.5532 10.9258C11.5532 10.7398 11.6401 10.6725 11.8126 10.6725C12.1675 10.6786 12.1675 10.1426 11.8126 10.1475C11.5783 10.1475 11.5532 10.0142 11.5532 9.88323C11.5537 9.84806 11.5471 9.81316 11.5339 9.78057C11.5207 9.74798 11.501 9.71839 11.4762 9.69352C11.4513 9.66865 11.4217 9.64902 11.3891 9.63579C11.3565 9.62256 11.3216 9.61599 11.2864 9.61648Z" fill="#F2F2F2"/>
<path fill-rule="evenodd" clip-rule="evenodd" d="M9.69483 14.4265C9.61529 14.4265 9.55227 14.4938 9.55349 14.5733C9.55349 14.673 9.51067 14.7183 9.41155 14.7183C9.21698 14.7183 9.21698 15.0089 9.41155 15.0058C9.50699 15.0058 9.55349 15.0328 9.55349 15.1454C9.55044 15.3399 9.84412 15.3399 9.84106 15.1454C9.84106 15.0432 9.89 15.0065 9.98423 15.0065C10.1788 15.0065 10.1788 14.7152 9.98423 14.7183C9.85574 14.7183 9.84167 14.6449 9.84167 14.5727C9.84192 14.5533 9.83828 14.5342 9.83099 14.5163C9.82369 14.4984 9.81287 14.4821 9.79918 14.4685C9.78548 14.4549 9.76919 14.4441 9.75127 14.4369C9.73334 14.4297 9.71415 14.4261 9.69483 14.4265ZM11.0794 2.1958C11.0542 2.19596 11.0293 2.20117 11.0061 2.21107C10.9829 2.22098 10.9619 2.23542 10.9443 2.25353C10.9268 2.27165 10.913 2.29307 10.9039 2.31657C10.8947 2.34007 10.8903 2.36515 10.891 2.39036C10.891 2.52313 10.8341 2.58309 10.7025 2.58309C10.4443 2.57697 10.4443 2.96916 10.7025 2.96549C10.8292 2.96549 10.891 3.00037 10.891 3.15027C10.8873 3.40846 11.277 3.40846 11.2734 3.15027C11.2734 3.01444 11.337 2.96549 11.4624 2.96549C11.7212 2.97161 11.7212 2.57942 11.4624 2.58309C11.2917 2.58309 11.2734 2.4852 11.2734 2.39036C11.2737 2.3648 11.2689 2.33947 11.2593 2.31579C11.2496 2.29211 11.2354 2.27056 11.2173 2.25249C11.1992 2.23441 11.1777 2.22014 11.154 2.21051C11.1303 2.20088 11.105 2.19611 11.0794 2.19644V2.1958Z" fill="black" fill-opacity="0.8"/>
<path fill-rule="evenodd" clip-rule="evenodd" d="M23.1549 1.824C23.1359 1.82423 23.1171 1.82823 23.0997 1.83576C23.0823 1.84328 23.0665 1.85418 23.0533 1.86784C23.0401 1.88149 23.0297 1.89762 23.0228 1.9153C23.0159 1.93298 23.0125 1.95188 23.0129 1.97087C23.0129 2.0706 22.9701 2.11587 22.871 2.11587C22.6758 2.11587 22.6758 2.40648 22.871 2.40342C22.9664 2.40342 23.0129 2.43036 23.0129 2.54293C23.0099 2.7375 23.3036 2.7375 23.3005 2.54293C23.3005 2.44076 23.3488 2.40405 23.4431 2.40405C23.6382 2.40405 23.6382 2.11281 23.4431 2.11587C23.3146 2.11587 23.3011 2.04243 23.3011 1.97023C23.3014 1.95091 23.2977 1.93174 23.2904 1.91384C23.2831 1.89595 23.2723 1.87972 23.2586 1.86608C23.2449 1.85245 23.2286 1.84168 23.2107 1.83445C23.1928 1.82723 23.1742 1.82367 23.1549 1.824Z" fill="#F2F2F2"/>
<path fill-rule="evenodd" clip-rule="evenodd" d="M28.8673 5.60745C28.842 5.6076 28.8171 5.61277 28.7939 5.62268C28.7707 5.63259 28.7497 5.64703 28.7322 5.66514C28.7146 5.68326 28.7009 5.70472 28.6917 5.72822C28.6825 5.75171 28.6782 5.77679 28.6788 5.80201C28.6788 5.93416 28.6225 5.99474 28.491 5.99474C28.2322 5.98862 28.2322 6.38019 28.491 6.37714C28.6176 6.37714 28.6788 6.41203 28.6788 6.56131C28.6751 6.82012 29.0655 6.82012 29.0618 6.56131C29.0618 6.4261 29.1248 6.37714 29.2503 6.37714C29.5091 6.38325 29.5091 5.99107 29.2503 5.99474C29.0802 5.99474 29.0618 5.89684 29.0618 5.80201C29.0622 5.77634 29.0575 5.75085 29.0479 5.72706C29.0382 5.70327 29.0239 5.68165 29.0058 5.6635C28.9876 5.64535 28.966 5.63104 28.9422 5.62141C28.9184 5.61178 28.8929 5.60703 28.8673 5.60745Z" fill="black" fill-opacity="0.8"/>
<path fill-rule="evenodd" clip-rule="evenodd" d="M27.2675 10.4866C27.188 10.4866 27.125 10.5539 27.1262 10.6334C27.1262 10.7325 27.0834 10.7784 26.9843 10.7784C26.7897 10.7784 26.7897 11.069 26.9843 11.066C27.0797 11.066 27.1262 11.0929 27.1262 11.2055C27.1231 11.4001 27.4168 11.4001 27.4138 11.2055C27.4138 11.1033 27.4627 11.0666 27.5569 11.0666C27.7515 11.0666 27.7515 10.7754 27.5569 10.7784C27.4284 10.7784 27.4144 10.705 27.4144 10.6328C27.4146 10.6135 27.411 10.5943 27.4037 10.5764C27.3964 10.5585 27.3856 10.5423 27.3719 10.5286C27.3582 10.515 27.3419 10.5042 27.324 10.497C27.306 10.4898 27.2869 10.4863 27.2675 10.4866ZM27.0638 15.2815C27.0293 15.2819 26.9952 15.2892 26.9635 15.3028C26.9318 15.3165 26.9031 15.3363 26.8791 15.3611C26.8551 15.3859 26.8362 15.4152 26.8236 15.4474C26.811 15.4795 26.8049 15.5138 26.8056 15.5483C26.8056 15.73 26.7279 15.8126 26.5474 15.8126C26.1925 15.8065 26.1925 16.3425 26.5474 16.3376C26.7212 16.3376 26.8056 16.3859 26.8056 16.5909C26.8007 16.9458 27.3354 16.9458 27.3306 16.5909C27.3306 16.4043 27.4174 16.3376 27.59 16.3376C27.9448 16.3437 27.9448 15.8077 27.59 15.8126C27.3556 15.8126 27.3306 15.6786 27.3306 15.5483C27.331 15.5131 27.3245 15.4782 27.3113 15.4456C27.298 15.413 27.2784 15.3835 27.2535 15.3586C27.2286 15.3337 27.199 15.3141 27.1665 15.3009C27.1339 15.2876 27.099 15.2811 27.0638 15.2815Z" fill="#F2F2F2"/>
<path fill-rule="evenodd" clip-rule="evenodd" d="M12.4649 5.54937C12.4397 5.54961 12.4149 5.55485 12.3918 5.56479C12.3686 5.57474 12.3477 5.58918 12.3302 5.60729C12.3128 5.6254 12.299 5.64683 12.2899 5.67029C12.2808 5.69375 12.2764 5.71877 12.2771 5.74393C12.2771 5.87609 12.2202 5.93666 12.0886 5.93666C11.8298 5.93054 11.8298 6.32212 12.0886 6.31906C12.2153 6.31906 12.2771 6.35395 12.2771 6.50324C12.2734 6.76205 12.6625 6.76205 12.6595 6.50324C12.6595 6.36741 12.7225 6.31906 12.8485 6.31906C13.1067 6.32518 13.1067 5.93299 12.8485 5.93666C12.6772 5.93666 12.6589 5.83877 12.6589 5.74393C12.6593 5.71832 12.6545 5.69288 12.645 5.66913C12.6354 5.64538 12.6211 5.62383 12.603 5.60568C12.5849 5.58754 12.5634 5.57319 12.5397 5.56352C12.516 5.55386 12.4905 5.54904 12.4649 5.54937ZM17.1602 0C17.1407 0.000318747 17.1215 0.0044744 17.1037 0.0122114C17.0858 0.0199483 17.0697 0.0311342 17.0562 0.0451111C17.0426 0.0590879 17.032 0.0755695 17.0249 0.0936577C17.0177 0.111746 17.0142 0.131087 17.0145 0.150532C17.0145 0.253321 16.9705 0.299832 16.8689 0.299832C16.6689 0.296773 16.6689 0.597779 16.8689 0.595332C16.9668 0.595332 17.0145 0.622272 17.0145 0.737909C17.0121 0.937369 17.3131 0.937369 17.3101 0.737909C17.3101 0.632673 17.359 0.595332 17.4563 0.595332C17.6557 0.598391 17.6557 0.296773 17.4563 0.299832C17.3241 0.299832 17.3094 0.223953 17.3094 0.150532C17.3097 0.130831 17.306 0.11128 17.2986 0.0930229C17.2912 0.0747656 17.2802 0.0581754 17.2663 0.0442148C17.2524 0.0302543 17.2359 0.0192085 17.2176 0.0117259C17.1994 0.00424324 17.1799 0.000470484 17.1602 0.000634841V0Z" fill="black" fill-opacity="0.8"/>
<path d="M14.9282 14.7313C13.6727 15.9079 12.8828 17.6192 12.8828 19.5257C12.8828 20.3608 13.0419 21.1874 13.3441 21.9596C14.2864 19.5502 16.5202 17.9765 19.0006 17.9753C21.4834 17.9753 23.7178 19.5538 24.6576 21.9651C24.9617 21.1905 25.1183 20.3627 25.1189 19.5257C25.1189 17.5929 24.307 15.8602 23.021 14.6824" stroke="black" stroke-opacity="0.8" stroke-miterlimit="100" stroke-linejoin="round"/>
<path d="M15.7949 17.1258C16.1602 16.9661 16.5352 16.8346 16.9146 16.7318M18.5941 16.4669C19.8116 16.4063 21.0408 16.6259 22.1819 17.1264M17.6965 16.5513C17.5625 16.569 17.8299 16.5268 17.6965 16.5513Z" stroke="black" stroke-opacity="0.8" stroke-miterlimit="100" stroke-linecap="round" stroke-linejoin="round"/>
<path d="M14.7188 12.2159C14.7255 14.4056 15.3563 16.6083 16.5243 18.5147C17.3136 18.1917 18.1463 17.9763 19.001 17.9745C19.8612 17.9745 20.7123 18.1421 21.5053 18.4664C22.6696 16.5581 23.2826 14.4056 23.2839 12.2159C23.2777 8.72963 21.9519 5.39695 19.217 2.99487C17.1184 4.84446 15.5876 7.24286 14.9916 9.83705M14.7977 10.8674C14.7775 10.9696 14.7591 11.0717 14.742 11.1745" stroke="black" stroke-opacity="0.8" stroke-miterlimit="100" stroke-linecap="round" stroke-linejoin="round"/>
<path d="M7.93828 19.4234C8.56699 19.2128 9.24101 19.1765 9.88872 19.3183C10.5364 19.4601 11.1336 19.7748 11.6168 20.2288C12.1 20.6828 12.4512 21.2593 12.633 21.8969C12.8148 22.5345 12.8205 23.2095 12.6494 23.8501C13.0453 22.9329 13.9612 22.2495 14.9395 22.4502C15.0845 23.0412 15.3115 23.3882 15.5636 23.6568C15.2345 23.3273 15.0363 22.8895 15.006 22.4248C14.9756 21.9602 15.1152 21.5003 15.3987 21.1309C15.6822 20.7615 16.0903 20.5077 16.547 20.4168C17.0037 20.3259 17.4779 20.404 17.8812 20.6367L17.8874 21.6536V18.1386C18.5114 17.9036 19.1588 17.941 19.8189 18.1386V22.7433L19.8251 20.57C20.5776 20.1356 21.6092 20.2739 22.2235 20.8882C22.4018 21.0665 22.5432 21.2781 22.6397 21.5111C22.7362 21.744 22.7859 21.9937 22.7859 22.2459C22.7859 22.498 22.7362 22.7477 22.6397 22.9806C22.5432 23.2136 22.4018 23.4252 22.2235 23.6035C22.5728 23.2829 22.6334 22.8565 22.8683 22.4312C23.8473 22.2299 24.9853 22.8198 25.3818 23.7363C25.247 23.2315 25.3105 22.6943 25.5592 22.2348M26.335 21.4358C26.8049 21.1647 27.3632 21.0912 27.8872 21.2317C28.4112 21.3721 28.858 21.7149 29.1293 22.1847C29.6946 23.1636 29.3593 24.4485 28.381 25.0132H5.94491C5.21132 23.7663 5.2982 22.1357 6.04403 20.931M6.69686 20.1632C6.77334 20.0757 6.8541 19.9912 6.93915 19.9111" stroke="black" stroke-opacity="0.8" stroke-linecap="round" stroke-linejoin="round"/>
<path d="M21.3062 9.92105C21.3071 10.2127 21.2504 10.5017 21.1394 10.7714C21.0284 11.0411 20.8653 11.2863 20.6593 11.4928C20.4534 11.6994 20.2087 11.8633 19.9394 11.9751C19.67 12.0869 19.3812 12.1445 19.0895 12.1445C18.4991 12.1448 17.9327 11.9109 17.5146 11.494C17.0965 11.0772 16.8608 10.5115 16.8594 9.92105C16.8605 9.33038 17.096 8.7643 17.5141 8.34709C17.9322 7.92988 18.4988 7.69564 19.0895 7.6958C19.8054 7.6958 20.4386 8.03292 20.843 8.55727" stroke="black" stroke-opacity="0.8" stroke-miterlimit="34.178" stroke-linecap="round" stroke-linejoin="round"/>
<path d="M30.4219 25.0164H33.9999" stroke="black" stroke-opacity="0.8" stroke-linecap="round" stroke-linejoin="round"/>
</svg>
