<svg width="35" height="31" viewBox="0 0 35 31" fill="none" xmlns="http://www.w3.org/2000/svg">
<path d="M17.9419 12.974C18.0954 13.3385 18.2716 13.6931 18.4693 14.0357C19.5392 15.8782 21.0447 16.8923 22.7071 16.8923C24.3729 16.8923 25.9133 15.8828 27.0459 14.0485C27.2515 13.7149 27.4362 13.3688 27.5989 13.0123C28.0598 12.832 28.4558 12.5172 28.7354 12.1089C29.0151 11.7005 29.1655 11.2176 29.1672 10.7226C29.1675 10.4678 29.112 10.216 29.0044 9.98492C28.8968 9.75389 28.7398 9.54929 28.5445 9.38559C28.5596 9.17067 28.5677 8.9546 28.5677 8.74318C28.5677 5.36604 26.2474 2.32146 22.7071 2.32146C21.9084 2.30005 21.1155 2.46212 20.3893 2.7952C19.6631 3.12829 19.023 3.62351 18.5182 4.24277C17.3765 5.63843 16.9716 7.61793 17.0846 9.38674C16.8898 9.55061 16.7333 9.7551 16.6259 9.98587C16.5186 10.2166 16.463 10.4681 16.4631 10.7226C16.4627 11.2013 16.6026 11.6696 16.8654 12.0697C17.1282 12.4698 17.5024 12.7842 17.9419 12.974ZM34.3738 24.319C34.2544 23.1718 33.8652 22.021 32.8389 21.1931C31.8371 20.3854 30.4655 20.0523 29.172 19.6909C29.1197 19.6766 26.5836 18.9922 26.5836 19.1978C26.5788 19.1496 26.3881 17.176 26.3881 17.176L22.816 19.2005H22.8147L19.2427 17.176C19.2427 17.176 19.0555 19.1144 19.0471 19.1978C19.0471 18.9922 16.5111 19.6766 16.4588 19.6909C15.1653 20.0523 13.7937 20.3854 12.7919 21.1931C11.7656 22.021 11.3764 23.1718 11.257 24.319L10.6309 30.2526H21.4033L22.2238 23.2139L21.6213 21.1647C22.3859 20.8482 23.2449 20.8482 24.0095 21.1647L23.4069 23.2139L24.2274 30.2526H34.9999L34.3738 24.319Z" fill="#09000A"/>
<path d="M10.4892 6.13686L6.69645 9.86541L4.44491 7.93116C4.35342 7.85258 4.23646 7.80999 4.11586 7.81135C3.99527 7.8127 3.87929 7.85791 3.78959 7.93853C3.6999 8.01914 3.64261 8.12966 3.62844 8.24942C3.61427 8.36919 3.64418 8.49002 3.71259 8.58934L5.99491 11.9029C6.05362 11.9874 6.12592 12.0617 6.20888 12.1226C6.30575 12.1933 6.4156 12.2441 6.53214 12.2723C6.64868 12.3005 6.76963 12.3055 6.88809 12.287C7.00655 12.2684 7.1202 12.2267 7.22255 12.1643C7.32489 12.1018 7.41393 12.0198 7.48458 11.9229L7.51028 11.8876L11.2347 6.78017C11.3078 6.67996 11.3405 6.55594 11.3263 6.43273C11.3122 6.30952 11.2522 6.19614 11.1583 6.11512C11.0644 6.03409 10.9435 5.99135 10.8195 5.99538C10.6956 5.9994 10.5777 6.04991 10.4892 6.13686Z" fill="black"/>
<path d="M14.489 11.5615C15.2349 8.95821 14.8589 5.88984 14.8589 3.21034C14.859 2.96696 14.7828 2.72966 14.6411 2.53181C14.4993 2.33396 14.2991 2.1855 14.0686 2.10731L8.29286 0.160281C8.04333 0.0754731 7.78409 0.0225475 7.52129 0.00276326C7.5099 0.00265842 7.49854 0.00175686 7.48728 6.51772e-05C7.48066 -0.000198241 7.47403 0.000337446 7.46754 0.00166066L7.43352 0.00276326C7.17017 0.0224352 6.91037 0.0753588 6.66031 0.160272L0.885064 2.10731C0.65452 2.1854 0.454273 2.33384 0.312513 2.53171C0.170753 2.72958 0.0946194 2.96693 0.0948294 3.21035C0.0948294 5.90701 -0.281698 8.9409 0.465806 11.5615C0.924652 13.1649 1.79108 14.6221 2.98064 15.7911C4.1702 16.9601 5.64231 17.8009 7.25352 18.2317C7.25352 18.2317 7.46754 18.2872 7.46754 18.2915L7.47796 18.2888C7.47796 18.2888 7.48728 18.2915 7.48728 18.2872L7.70022 18.2317C9.31136 17.8006 10.7834 16.9596 11.9731 15.7907C13.1628 14.6218 14.0295 13.1648 14.489 11.5615ZM7.47648 14.2915C1.86524 14.378 0.574508 6.15548 5.72104 4.29315C6.74592 3.94463 7.8529 3.91808 8.89331 4.21707C9.93371 4.51607 10.8577 5.12627 11.5412 5.96574C12.1916 6.8311 12.5616 7.87476 12.6015 8.95654C12.6414 10.0383 12.3493 11.1064 11.7644 12.0173C11.2811 12.7091 10.6402 13.2761 9.89468 13.6715C9.14914 14.0669 8.32029 14.2794 7.47648 14.2915Z" fill="#09000A"/>
</svg>
