<svg width="34" height="34" viewBox="0 0 34 34" fill="none" xmlns="http://www.w3.org/2000/svg">
<path d="M16.6667 0C17.8173 0 18.75 0.93274 18.75 2.08333V14.5833H31.25C32.4006 14.5833 33.3333 15.5161 33.3333 16.6667C33.3333 17.8173 32.4006 18.75 31.25 18.75H18.75V31.25C18.75 32.4006 17.8173 33.3333 16.6667 33.3333C15.5161 33.3333 14.5833 32.4006 14.5833 31.25V18.75H2.08333C0.93274 18.75 0 17.8173 0 16.6667C0 15.5161 0.93274 14.5833 2.08333 14.5833H14.5833V2.08333C14.5833 0.93274 15.5161 0 16.6667 0Z" fill="#ED7272"/>
</svg>
