<svg width="64" height="53" viewBox="0 0 64 53" fill="none" xmlns="http://www.w3.org/2000/svg">
<path d="M7.73023 52.51C5.67023 52.51 3.99023 50.83 3.99023 48.77V23.78C3.99023 23.5227 4.09243 23.276 4.27434 23.0941C4.45625 22.9122 4.70297 22.81 4.96023 22.81C5.21749 22.81 5.46422 22.9122 5.64613 23.0941C5.82804 23.276 5.93023 23.5227 5.93023 23.78V48.76C5.93023 49.75 6.74023 50.56 7.73023 50.56C8.72023 50.56 9.53023 49.75 9.53023 48.76V35.69C9.53023 35.15 9.96023 34.72 10.5002 34.72C11.0402 34.72 11.4702 35.15 11.4702 35.69V48.77C11.4702 50.83 9.79023 52.51 7.73023 52.51ZM10.5002 12.5C7.05023 12.5 4.25023 9.69 4.25023 6.25C4.25023 2.81 7.06023 0 10.5002 0C13.9502 0 16.7502 2.81 16.7502 6.25C16.7502 9.69 13.9502 12.5 10.5002 12.5ZM10.5002 1.93C8.12023 1.93 6.19023 3.87 6.19023 6.24C6.19023 8.61 8.13023 10.55 10.5002 10.55C12.8802 10.55 14.8102 8.61 14.8102 6.24C14.8102 3.87 12.8802 1.93 10.5002 1.93Z" fill="#09000A"/>
<path d="M13.27 52.5092C11.21 52.5092 9.53 50.8292 9.53 48.7692C9.53 48.2292 9.96 47.7992 10.5 47.7992C11.04 47.7992 11.47 48.2292 11.47 48.7692C11.47 49.7592 12.28 50.5692 13.27 50.5692C14.26 50.5692 15.07 49.7592 15.07 48.7692V21.6192C15.07 19.9192 16.45 18.5392 18.15 18.5392H27.76C28.57 18.5392 29.23 17.8792 29.23 17.0692C29.23 16.2592 28.57 15.5992 27.76 15.5992H4.95C3.29 15.5992 1.94 16.9492 1.94 18.6092V29.8592C1.94 31.5192 3.29 32.8692 4.95 32.8692C5.49 32.8692 5.92 33.2992 5.92 33.8392C5.92 34.3792 5.49 34.8092 4.95 34.8092C2.22 34.8092 0 32.5892 0 29.8592V18.6092C0 15.8792 2.22 13.6592 4.95 13.6592H27.76C29.64 13.6592 31.17 15.1892 31.17 17.0692C31.17 18.9492 29.64 20.4792 27.76 20.4792H18.15C17.52 20.4792 17.01 20.9892 17.01 21.6192V48.7692C17.01 49.7611 16.616 50.7124 15.9146 51.4138C15.2132 52.1152 14.2619 52.5092 13.27 52.5092ZM59.92 26.9292H35.06C33.4 26.9292 32.05 25.5792 32.05 23.9192V7.45922C32.05 5.79922 33.4 4.44922 35.06 4.44922H59.92C61.58 4.44922 62.93 5.79922 62.93 7.45922V23.9092C62.93 25.5792 61.58 26.9292 59.92 26.9292ZM35.06 6.38922C34.47 6.38922 33.99 6.86922 33.99 7.45922V23.9092C33.99 24.4992 34.47 24.9792 35.06 24.9792H59.92C60.51 24.9792 60.99 24.4992 60.99 23.9092V7.45922C60.99 6.86922 60.51 6.38922 59.92 6.38922H35.06Z" fill="#09000A"/>
<path d="M58.3605 23.3308H36.6205C36.0805 23.3308 35.6505 22.9008 35.6505 22.3608V9.02078C35.6505 8.48078 36.0805 8.05078 36.6205 8.05078H58.3705C58.9105 8.05078 59.3405 8.48078 59.3405 9.02078V22.3608C59.3305 22.8908 58.9005 23.3308 58.3605 23.3308ZM37.5905 21.3908H57.4005V9.99078H37.5905V21.3908ZM49.8405 30.2608C49.3005 30.2608 48.8705 29.8308 48.8705 29.2908V25.9508C48.8705 25.4108 49.3005 24.9808 49.8405 24.9808C50.3805 24.9808 50.8105 25.4108 50.8105 25.9508V29.2908C50.8105 29.8308 50.3705 30.2608 49.8405 30.2608ZM45.1405 30.2608C44.6005 30.2608 44.1705 29.8308 44.1705 29.2908V25.9508C44.1705 25.4108 44.6005 24.9808 45.1405 24.9808C45.6805 24.9808 46.1105 25.4108 46.1105 25.9508V29.2908C46.1105 29.8308 45.6805 30.2608 45.1405 30.2608ZM63.0305 36.9708H31.9505C31.4105 36.9708 30.9805 36.5408 30.9805 36.0008V32.2408C30.9805 31.7008 31.4105 31.2708 31.9505 31.2708H63.0305C63.5705 31.2708 64.0005 31.7008 64.0005 32.2408V36.0008C64.0005 36.5308 63.5705 36.9708 63.0305 36.9708ZM32.9205 35.0308H62.0605V33.2108H32.9205V35.0308Z" fill="#09000A"/>
<path d="M45.7395 49.3693C45.1995 49.3693 44.7695 48.9393 44.7695 48.3993V35.9993C44.7695 35.4593 45.1995 35.0293 45.7395 35.0293C46.2795 35.0293 46.7095 35.4593 46.7095 35.9993V48.4093C46.7095 48.9393 46.2695 49.3693 45.7395 49.3693ZM49.2395 49.3693C48.6995 49.3693 48.2695 48.9393 48.2695 48.3993V35.9993C48.2695 35.4593 48.6995 35.0293 49.2395 35.0293C49.7795 35.0293 50.2095 35.4593 50.2095 35.9993V48.4093C50.2095 48.9393 49.7795 49.3693 49.2395 49.3693Z" fill="#09000A"/>
<path d="M53.2702 52.5105H41.7102C41.1702 52.5105 40.7402 52.0806 40.7402 51.5406V48.4105C40.7402 47.8705 41.1702 47.4405 41.7102 47.4405H53.2702C53.8102 47.4405 54.2402 47.8705 54.2402 48.4105V51.5406C54.2402 52.0705 53.8102 52.5105 53.2702 52.5105ZM42.6802 50.5705H52.3002V49.3806H42.6802V50.5705ZM53.2702 33.2105C52.7302 33.2105 52.3002 32.7806 52.3002 32.2405V31.4705C52.3002 30.8105 51.7602 30.2705 51.1002 30.2705H43.8802C43.2202 30.2705 42.6802 30.8105 42.6802 31.4705V32.2405C42.6802 32.7806 42.2502 33.2105 41.7102 33.2105C41.1702 33.2105 40.7402 32.7806 40.7402 32.2405V31.4705C40.7402 29.7405 42.1502 28.3305 43.8802 28.3305H51.1002C52.8302 28.3305 54.2402 29.7405 54.2402 31.4705V32.2405C54.2402 32.7705 53.8102 33.2105 53.2702 33.2105ZM41.8802 19.7005C41.6884 19.7021 41.5004 19.6465 41.3403 19.5409C41.1802 19.4352 41.0551 19.2843 40.9811 19.1073C40.9071 18.9303 40.8875 18.7353 40.9247 18.5471C40.9619 18.3589 41.0544 18.186 41.1902 18.0505L45.5302 13.7105C45.9102 13.3305 46.5202 13.3305 46.9002 13.7105L48.7802 15.5905L52.3902 11.9705C52.7702 11.5905 53.3802 11.5905 53.7602 11.9705C54.1402 12.3505 54.1402 12.9605 53.7602 13.3405L49.4602 17.6405C49.0802 18.0205 48.4702 18.0205 48.0902 17.6405L46.2102 15.7605L42.5502 19.4205C42.3802 19.6105 42.1302 19.7005 41.8802 19.7005Z" fill="#09000A"/>
</svg>
