<svg width="42" height="49" viewBox="0 0 42 49" fill="none" xmlns="http://www.w3.org/2000/svg">
<path d="M16.8583 28.6865L18.9333 25.9253L22.615 26.6681C23.1721 26.7811 23.6969 27.0072 24.1652 27.3463C24.3105 27.4512 24.472 27.4997 24.6334 27.4997C24.8837 27.4997 25.134 27.3866 25.2874 27.1606C25.5458 26.7972 25.465 26.2967 25.1017 26.0302C24.4397 25.5539 23.713 25.239 22.9218 25.0775L18.8929 24.2701L16.9632 22.9864V21.1213C19.6034 19.9587 21.5088 17.4315 21.7753 14.428C23.1801 14.0809 24.2297 12.8133 24.2297 11.3034V8.88128C24.2297 4.69093 20.7741 0 16.1559 0H12.4984C10.1247 0 7.96893 1.23531 6.77399 3.26185C4.77974 3.50407 3.22956 5.20766 3.22956 7.2665V11.3034C3.22956 12.8133 4.27916 14.0809 5.68402 14.428C5.94238 17.4235 7.84782 19.9587 10.4961 21.1213V22.9864L8.5664 24.2701L4.5456 25.0775C1.91351 25.6023 0 27.9357 0 30.6162V42.7916C0 43.2357 0.363325 43.599 0.807389 43.599C1.25145 43.599 1.61478 43.2357 1.61478 42.7916V30.6162C1.61478 28.6946 2.97927 27.0314 4.86048 26.66L8.54218 25.9253L10.6172 28.6865L11.2954 30.0349L10.5041 40.3049C10.488 40.539 10.5687 40.7731 10.7383 40.9346L13.1604 43.3568C13.3219 43.5183 13.5238 43.5909 13.7337 43.5909C13.9436 43.5909 14.1455 43.5102 14.3069 43.3568L16.7291 40.9346C16.8987 40.7651 16.9794 40.539 16.9632 40.3049L16.172 30.0349L16.8502 28.6865H16.8583ZM16.0832 27.0314L14.8883 25.8365L16.2689 24.4558L17.4315 25.2309L16.0832 27.0314ZM4.86856 11.3034V7.2665C4.86856 5.93431 5.95853 4.84433 7.29072 4.84433C7.59753 4.84433 7.87204 4.67478 8.0093 4.40027C8.86513 2.68053 10.5929 1.61478 12.5145 1.61478H16.172C19.8698 1.61478 22.6311 5.44988 22.6311 8.88128V11.3034C22.6311 11.9009 22.3001 12.4096 21.8237 12.6922V12.1108C21.8237 11.6668 21.4604 11.3034 21.0163 11.3034C13.435 11.3034 10.3104 8.34033 10.2861 8.30803C10.0924 8.10619 9.8017 8.03352 9.52719 8.09004C9.25268 8.15463 9.03468 8.35648 8.94587 8.62292C8.28381 10.6172 6.24112 11.3357 6.22497 11.3438C5.89394 11.4569 5.67594 11.7637 5.67594 12.1108V12.6922C5.19959 12.4096 4.86856 11.9009 4.86856 11.3034ZM7.29072 13.7256V12.6437C8.00123 12.2965 9.22846 11.5376 10.0278 10.1489C11.4488 11.1177 14.6703 12.7648 20.2089 12.9102V13.7256C20.2089 17.2862 17.3104 20.1847 13.7498 20.1847C10.1892 20.1847 7.29072 17.2862 7.29072 13.7256ZM13.7498 21.7995C14.2989 21.7995 14.8398 21.743 15.3646 21.638V23.0833L13.7498 24.698L12.1351 23.0833V21.638C12.6599 21.743 13.2008 21.7995 13.7498 21.7995ZM11.2227 24.4558L12.6033 25.8365L11.4084 27.0314L10.0601 25.2309L11.2227 24.4558ZM13.7498 41.6532L12.1593 40.0626L12.9344 29.938C12.9424 29.7927 12.9182 29.6473 12.8536 29.5181L12.3046 28.4201L13.7418 26.9829L15.1789 28.4201L14.6299 29.5181C14.5653 29.6473 14.533 29.7927 14.5492 29.938L15.3242 40.0626L13.7337 41.6532H13.7498Z" fill="#09000A"/>
<path d="M4.86012 32.2955C4.41606 32.2955 4.05273 32.6588 4.05273 33.1029V42.7916C4.05273 43.2356 4.41606 43.599 4.86012 43.599C5.30419 43.599 5.66751 43.2356 5.66751 42.7916V33.1029C5.66751 32.6588 5.30419 32.2955 4.86012 32.2955ZM37.9631 30.6807H35.5409V29.8733C35.5409 28.5411 34.4509 27.4512 33.1187 27.4512H28.2744C26.9422 27.4512 25.8522 28.5411 25.8522 29.8733V30.6807H23.4301C21.2017 30.6807 19.3931 32.4893 19.3931 34.7177V44.4063C19.3931 46.6347 21.2017 48.4433 23.4301 48.4433H37.9631C40.1915 48.4433 42 46.6347 42 44.4063V34.7177C42 32.4893 40.1915 30.6807 37.9631 30.6807ZM27.467 29.8733C27.467 29.4293 27.8303 29.0659 28.2744 29.0659H33.1187C33.5628 29.0659 33.9261 29.4293 33.9261 29.8733V30.6807H27.467V29.8733ZM21.0079 34.7177C21.0079 33.3855 22.0979 32.2955 23.4301 32.2955H37.9631C39.2953 32.2955 40.3852 33.3855 40.3852 34.7177V36.3325C40.3852 37.6646 39.2953 38.7546 37.9631 38.7546H31.504V37.9472C31.504 37.5032 31.1406 37.1398 30.6966 37.1398C30.2525 37.1398 29.8892 37.5032 29.8892 37.9472V38.7546H23.4301C22.0979 38.7546 21.0079 37.6646 21.0079 36.3325V34.7177ZM37.9631 46.8285H23.4301C22.0979 46.8285 21.0079 45.7385 21.0079 44.4063V39.5378C21.6861 40.0464 22.5177 40.3694 23.4301 40.3694H29.8892V41.1768C29.8892 41.6208 30.2525 41.9842 30.6966 41.9842C31.1406 41.9842 31.504 41.6208 31.504 41.1768V40.3694H37.9631C38.8754 40.3694 39.707 40.0545 40.3852 39.5378V44.4063C40.3852 45.7385 39.2953 46.8285 37.9631 46.8285Z" fill="#09000A"/>
</svg>
