<svg width="50" height="35" viewBox="0 0 50 35" fill="none" xmlns="http://www.w3.org/2000/svg">
<path d="M7.93359 10.0132H13.4549V13.8836H7.93359V10.0132Z" fill="black"/>
<path d="M14.57 8.93576C13.9186 11 12.4685 12.5709 10.7237 12.5709C8.97895 12.5709 7.47455 10.962 6.82316 8.89781C5.9624 8.29828 5.76854 6.13541 6.48972 6.15818C6.65256 3.15293 8.48265 0.785156 10.7237 0.785156C12.9648 0.785156 14.6165 3.16052 14.7716 6.17336C15.6014 5.85462 15.5161 8.38176 14.57 8.93576Z" fill="#9CCDFF"/>
<path d="M14.2141 7.69849H14.4545C14.881 6.19587 15.1446 4.47316 14.9973 3.08437C14.6483 0.913913 13.0509 -0.156138 10.9881 0.0184094C9.69313 0.139834 8.78584 0.534462 8.37484 1.27819C7.32797 0.648297 6.58353 0.989803 6.2811 2.76563C6.04071 4.45798 6.28885 6.19587 6.63781 7.73643L6.93249 7.71367C6.3664 3.99505 11.0734 2.15092 13.5472 4.90573L13.3378 4.10889C14.1133 4.8602 14.3924 6.20345 14.2141 7.69849Z" fill="black"/>
<path d="M13.8801 12.5703C13.8724 16.1144 12.1586 20.5995 10.693 25.0846C9.22738 20.5995 7.51361 16.1144 7.50586 12.5703L9.63838 15.7273L10.693 13.8908L11.7476 15.7273L13.8801 12.5703Z" fill="white"/>
<path d="M12.4616 25.0769H8.88672L10.1042 15.9321H11.2441L12.4616 25.0769Z" fill="black"/>
<path d="M11.2593 15.933H10.1271L8.83984 13.8916H12.5465L11.2593 15.933Z" fill="black"/>
<path d="M10.693 13.8838L9.63838 15.7279L7.50586 12.5709L7.93236 11.9106L10.693 13.8838ZM13.8801 12.5709L11.7476 15.7279L10.693 13.8838L13.4536 11.9106L13.8801 12.5709Z" fill="black"/>
<path d="M6.71543 18.429L7.22724 16.4407L6.18812 15.9095L6.00977 13.6707L7.50641 12.5703C7.51416 16.1144 9.22793 20.5995 10.6935 25.0846C9.04182 23.119 7.68476 20.9334 6.71543 18.429Z" fill="black"/>
<path d="M10.6935 25.0772H1.19408C0.457388 25.0772 -0.100944 24.4321 0.0153754 23.7263L1.02347 17.6399C1.1553 16.8203 1.64384 16.0994 2.36502 15.6592C3.37312 15.0369 4.39673 14.3387 6.00969 13.6785L6.18804 15.9172L7.22716 16.4485L6.71536 18.4368C7.68468 20.9336 9.04174 23.1192 10.6935 25.0772Z" fill="black"/>
<path d="M15.1988 15.9105L14.1597 16.4417L14.6715 18.43C13.7021 20.9344 12.3451 23.12 10.6934 25.078C12.159 20.5929 13.8727 16.1154 13.8805 12.5637L15.3771 13.6717L15.1988 15.9105Z" fill="black"/>
<path d="M10.6934 25.0772C12.3451 23.1192 13.7021 20.9336 14.6715 18.4292L14.1597 16.4409L15.1988 15.9097L15.3771 13.6709C16.9901 14.3311 18.0137 15.0293 19.0218 15.6516C19.7352 16.0918 20.2238 16.8127 20.3634 17.6324L21.3715 23.7188C21.4878 24.4245 20.9294 25.0696 20.1928 25.0696H10.6934V25.0772Z" fill="black"/>
<path d="M36.1836 10.0132H41.7049V13.8836H36.1836V10.0132Z" fill="black"/>
<path d="M42.822 8.93576C42.1706 11 40.7205 12.5709 38.9757 12.5709C37.2309 12.5709 35.7265 10.962 35.0751 8.89781C34.2144 8.29828 34.0205 6.13541 34.7417 6.15818C34.9045 3.15293 36.7346 0.785156 38.9757 0.785156C41.2168 0.785156 42.8685 3.16052 43.0236 6.17336C43.8533 5.85462 43.768 8.38176 42.822 8.93576Z" fill="#9CCDFF"/>
<path d="M42.4641 7.69849H42.7045C43.131 6.19587 43.3946 4.47316 43.2473 3.08437C42.8983 0.913913 41.3009 -0.156138 39.2381 0.0184094C37.9431 0.139834 37.0358 0.534462 36.6248 1.27819C35.578 0.648297 34.8335 0.989803 34.5311 2.76563C34.2907 4.45798 34.5389 6.19587 34.8878 7.73643L35.1825 7.71367C34.6164 3.99505 39.3234 2.15092 41.7972 4.90573L41.5878 4.10889C42.3633 4.8602 42.6424 6.20345 42.4641 7.69849Z" fill="black"/>
<path d="M42.1301 12.5703C42.1224 16.1144 40.4086 20.5995 38.943 25.0846C37.4774 20.6071 35.7636 16.122 35.7559 12.5703L37.8884 15.7273L38.943 13.8908L39.9976 15.7273L42.1301 12.5703Z" fill="white"/>
<path d="M40.7116 25.0769H37.1367L38.3619 15.9321H39.4941L40.7116 25.0769Z" fill="black"/>
<path d="M39.5093 15.933H38.3771L37.0898 13.8916H40.7965L39.5093 15.933Z" fill="black"/>
<path d="M38.943 13.8838L37.8884 15.7279L35.7559 12.5709L36.1824 11.9106L38.943 13.8838ZM42.1301 12.5709L39.9976 15.7279L38.943 13.8838L41.7036 11.9106L42.1301 12.5709Z" fill="black"/>
<path d="M34.9654 18.429L35.4772 16.4407L34.4381 15.9095L34.2598 13.6707L35.7564 12.5703C35.7642 16.1144 37.4779 20.5995 38.9435 25.0846C37.2918 23.119 35.9348 20.9334 34.9654 18.429Z" fill="black"/>
<path d="M38.9435 25.0772H29.4441C28.7074 25.0772 28.1491 24.4321 28.2654 23.7263L29.2735 17.6399C29.4053 16.8203 29.8938 16.0994 30.615 15.6592C31.6231 15.0369 32.6467 14.3387 34.2597 13.6785L34.438 15.9172L35.4772 16.4485L34.9654 18.4368C35.9347 20.9336 37.2917 23.1192 38.9435 25.0772Z" fill="black"/>
<path d="M43.4488 15.9105L42.4097 16.4417L42.9215 18.43C41.9521 20.9344 40.5951 23.12 38.9434 25.078C40.409 20.5929 42.1227 16.1154 42.1305 12.5637L43.6271 13.6717L43.4488 15.9105Z" fill="black"/>
<path d="M38.9434 25.0772C40.5951 23.1192 41.9521 20.9336 42.9215 18.4292L42.4097 16.4409L43.4488 15.9097L43.6271 13.6709C45.2401 14.3311 46.2637 15.0293 47.2718 15.6516C47.9852 16.0918 48.4738 16.8127 48.6134 17.6324L49.6215 23.7188C49.7378 24.4245 49.1794 25.0696 48.4428 25.0696H38.9434V25.0772Z" fill="black"/>
<path d="M32.6236 26.8766H17.0059L18.0527 13.8462C18.1863 12.1809 18.9566 10.6261 20.2101 9.49229C21.4636 8.35845 23.1079 7.72896 24.8147 7.72949C28.3509 7.72949 31.2976 10.3932 31.5768 13.8462L32.6236 26.8766Z" fill="black"/>
<path d="M24.8294 34.2368C23.9997 30.3892 22.3712 25.2514 22.4798 23.2024C22.4798 24.4622 23.5267 25.4791 24.8062 25.4791C26.0934 25.4791 27.1325 24.4622 27.1325 23.2024H27.1403C27.2644 25.2438 25.6669 30.3816 24.8294 34.2368Z" fill="white"/>
<path d="M24.8293 34.2378H14.7018C14.3373 34.2378 14.0581 33.9115 14.1279 33.5624L15.5703 25.9354C15.6633 24.7591 18.835 23.3931 20.8512 23.1958H22.4874C22.3711 25.2524 23.9918 30.3902 24.8293 34.2378ZM34.918 34.253L24.8293 34.2378C25.6745 30.375 27.272 25.2524 27.1479 23.1958H28.7764C30.8003 23.3931 33.972 24.7591 34.065 25.9354L35.5074 33.5624C35.5694 33.9115 35.2903 34.2378 34.918 34.253Z" fill="black"/>
<path d="M28.2884 26.5047L27.3811 26.3605L28.11 27.2712C26.9779 29.6617 26.4195 31.6576 24.8376 34.2379C25.6673 30.3826 27.2725 25.2449 27.1485 23.1959C27.1485 23.1731 27.1485 23.1503 27.1407 23.1351C27.1097 22.7557 27.0166 22.4977 26.846 22.3762C26.9468 22.399 27.0477 22.4294 27.1407 22.4597C27.8464 22.657 28.3659 22.9151 28.7769 23.2034C28.7847 24.2052 28.5831 25.3284 28.2884 26.5047ZM21.5264 27.2712L22.2476 26.3605L21.3403 26.5047C21.0378 25.3284 20.8362 24.2052 20.844 23.1959C21.255 22.9075 21.7745 22.6494 22.4802 22.4521C22.5732 22.4218 22.6741 22.399 22.7749 22.3687C22.5965 22.4977 22.5035 22.786 22.4802 23.1883V23.1959C22.3639 25.2525 23.9923 30.3827 24.8221 34.2303C23.2479 31.65 22.6585 29.6617 21.5264 27.2712Z" fill="black"/>
<path d="M27.141 20.6753V23.1949C27.141 24.4546 26.1019 25.4716 24.8147 25.4716C23.5274 25.4716 22.4883 24.4546 22.4883 23.1949V20.6677H27.141V20.6753Z" fill="black"/>
<path d="M29.707 17.5947C29.707 20.8504 27.2488 22.9298 24.8293 22.9298C22.4099 22.9298 19.9594 20.7897 19.9594 17.5264C19.9594 17.3443 19.9517 16.813 19.9439 16.297C19.9207 14.9082 20.6263 13.5953 21.8438 12.8743C22.6735 12.381 23.6816 12.0092 24.8293 11.3262C25.3411 13.4435 26.0003 14.0582 28.6291 14.9158C28.9427 15.0165 29.2158 15.2117 29.4094 15.4733C29.6029 15.735 29.7071 16.0498 29.707 16.3729V17.5947Z" fill="#9CCDFF"/>
</svg>
