<svg width="40" height="34" viewBox="0 0 40 34" fill="none" xmlns="http://www.w3.org/2000/svg">
<path d="M34.8291 32.578H31.1765L30.6849 23.1136C30.6277 21.979 30.2346 20.887 29.5554 19.9763C28.8763 19.0656 27.9417 18.3773 26.8706 17.9988L22.994 16.6174C21.681 16.0449 21.1272 15.4413 20.9654 14.2715C21.8241 13.5946 22.3917 12.6152 22.5522 11.5336C22.5644 11.4831 22.5874 11.4358 22.6197 11.395C22.6519 11.3542 22.6925 11.3208 22.7388 11.2972C23.3625 10.9504 23.8299 10.3782 24.0451 9.6979C24.2603 9.01757 24.207 8.28067 23.8962 7.63835C24.1248 6.82418 24.1787 5.97087 24.0543 5.1344C23.9299 4.29794 23.6301 3.49724 23.1744 2.78482C23.2864 2.48355 23.2995 2.15444 23.2118 1.84523C23.148 1.61657 23.0306 1.40642 22.8693 1.23219C22.7081 1.05797 22.5076 0.924689 22.2846 0.843412C17.2631 -0.979773 14.8674 0.606958 14.0647 1.37232C14.0123 1.41278 13.95 1.43855 13.8843 1.44699C11.0468 1.87634 11.3953 6.58675 11.4948 7.60102C11.2423 8.27598 11.2396 9.01904 11.4872 9.69583C11.7349 10.3726 12.2165 10.9384 12.8451 11.2909C12.8907 11.3155 12.9308 11.3492 12.9629 11.3899C12.995 11.4305 13.0185 11.4773 13.0318 11.5274C13.1648 12.5169 13.6404 13.4284 14.3758 14.1035C14.1829 15.5347 13.5234 16.0947 12.3598 16.5925L8.4396 17.9925C7.36839 18.3729 6.43413 19.0625 5.75512 19.9741C5.0761 20.8858 4.68287 21.9784 4.62523 23.1136L4.13365 32.578H0.773519C0.681764 32.555 0.585975 32.5533 0.493432 32.5728C0.400888 32.5924 0.314028 32.6328 0.239453 32.691C0.164877 32.7492 0.104551 32.8237 0.0630583 32.9087C0.0215659 32.9937 0 33.087 0 33.1816C0 33.2762 0.0215659 33.3695 0.0630583 33.4545C0.104551 33.5396 0.164877 33.614 0.239453 33.6722C0.314028 33.7304 0.400888 33.7708 0.493432 33.7904C0.585975 33.81 0.681764 33.8082 0.773519 33.7852H34.8291C34.9637 33.7515 35.0831 33.6738 35.1684 33.5644C35.2537 33.455 35.3001 33.3203 35.3001 33.1816C35.3001 33.0429 35.2537 32.9082 35.1684 32.7988C35.0831 32.6895 34.9637 32.6117 34.8291 32.578ZM14.0647 2.63548C14.3795 2.59384 14.6733 2.45456 14.9048 2.23725C15.7859 1.49894 16.919 1.13093 18.0658 1.21054C19.3668 1.23668 20.6534 1.48936 21.8677 1.95723C21.9124 1.97211 21.9524 1.99825 21.984 2.03313C22.0156 2.06801 22.0377 2.11045 22.0482 2.15635C22.0622 2.20267 22.065 2.25165 22.0563 2.29926C22.0477 2.34687 22.0278 2.39173 21.9984 2.43014C21.9191 2.53729 21.8762 2.66707 21.8762 2.80038C21.8762 2.93369 21.9191 3.06347 21.9984 3.17062C22.6173 4.04862 22.9379 5.10215 22.9131 6.17607C22.2224 5.36093 21.177 4.44 20.001 4.48356C19.9181 4.47773 19.8349 4.47773 19.7521 4.48356L19.2356 4.57067C18.5597 4.75753 17.8457 4.75753 17.1697 4.57067C16.5439 4.38673 15.8756 4.40835 15.2629 4.63235C14.6503 4.85635 14.1256 5.27092 13.766 5.81517C13.49 6.23326 13.1077 6.57043 12.6584 6.7921C12.5962 5.32359 12.7456 2.84083 14.0647 2.63548ZM14.2203 11.3469C14.1835 11.1112 14.0925 10.8873 13.9542 10.6929C13.816 10.4985 13.6344 10.339 13.4238 10.2269C13.066 10.0289 12.7879 9.71287 12.6369 9.33275C12.486 8.95262 12.4716 8.53192 12.5962 8.14237C13.4788 7.8707 14.2411 7.30389 14.7554 6.53697C14.9732 6.20564 15.2908 5.95225 15.6622 5.81352C16.0337 5.6748 16.4396 5.65794 16.8213 5.76539C17.6735 6.01039 18.5758 6.02328 19.4347 5.80272L19.9387 5.69072H20.0632C21.121 5.64716 22.3406 7.32101 22.7077 7.94325C22.7824 8.09882 23.4171 9.52376 22.1415 10.2207C21.9216 10.3301 21.7312 10.4905 21.5861 10.6887C21.4411 10.8868 21.3456 11.1168 21.3077 11.3594C21.1646 12.3239 20.5112 13.9666 17.7546 14.1222C16.8982 14.1141 16.0638 13.8497 15.359 13.363C15.3307 13.3348 15.2994 13.3098 15.2657 13.2884C14.6885 12.7985 14.3156 12.1104 14.2203 11.3594V11.3469ZM17.7422 15.3169H17.8044C18.5095 15.2898 19.2054 15.1469 19.8641 14.8938C20.0026 15.488 20.2846 16.0392 20.6854 16.4992C20.328 16.9613 19.8684 17.3344 19.3427 17.5891C18.8169 17.8439 18.2393 17.9735 17.6551 17.9677C17.072 17.97 16.4954 17.8461 15.9647 17.6044C15.4341 17.3628 14.9621 17.009 14.5812 16.5676C15.0329 16.0759 15.3444 15.4721 15.4834 14.8191C16.1968 15.132 16.9636 15.3052 17.7422 15.3293V15.3169ZM5.83239 23.1945C5.87685 22.2951 6.18909 21.4295 6.72905 20.7088C7.26901 19.9881 8.01203 19.4453 8.86273 19.1499L12.8202 17.7312C13.1006 17.6098 13.3728 17.4706 13.6354 17.3143C14.1299 17.8983 14.7456 18.3678 15.4397 18.6902C16.1339 19.0125 16.8898 19.18 17.6551 19.181H17.6924C18.4517 19.1929 19.2032 19.0263 19.8863 18.6944C20.5694 18.3626 21.165 17.875 21.625 17.2707C21.9269 17.4535 22.2408 17.6157 22.5646 17.7561L26.4848 19.1561C27.3309 19.4553 28.0692 19.9986 28.6064 20.7175C29.1436 21.4363 29.4555 22.2984 29.5027 23.1945L29.988 32.5842H27.8039L28.3889 21.7385C28.3986 21.5553 28.371 21.3721 28.3079 21.2C28.2448 21.0278 28.1475 20.8702 28.0217 20.7367C27.8926 20.6031 27.7379 20.4968 27.5669 20.4241C27.3958 20.3514 27.212 20.3138 27.0261 20.3135H8.28404C8.09973 20.3133 7.91729 20.3505 7.74777 20.4229C7.57824 20.4952 7.42516 20.6012 7.29777 20.7344C7.17038 20.8676 7.07134 21.0253 7.00663 21.1979C6.94193 21.3704 6.91291 21.5544 6.92132 21.7385L7.50623 32.5842H5.34081L5.83239 23.1945ZM8.71339 32.578L8.12848 21.6638C8.12775 21.6456 8.13068 21.6273 8.13709 21.6103C8.1435 21.5932 8.15327 21.5775 8.16582 21.5642C8.18109 21.5483 8.19945 21.5357 8.21978 21.5271C8.24012 21.5186 8.26198 21.5143 8.28404 21.5145H27.0261C27.0482 21.5143 27.0701 21.5186 27.0904 21.5271C27.1107 21.5357 27.1291 21.5483 27.1444 21.5642C27.1583 21.5764 27.1691 21.5919 27.1756 21.6093C27.1821 21.6267 27.1842 21.6454 27.1817 21.6638L26.5968 32.578H8.71339ZM27.3621 5.42937C27.2037 5.4389 27.0548 5.50864 26.9461 5.62432C26.8374 5.74 26.7769 5.89286 26.7772 6.05162C26.7852 6.2112 26.8543 6.36159 26.9701 6.47164C27.086 6.58169 27.2397 6.64296 27.3995 6.64276C33.622 6.4623 38.183 10.9985 38.7742 17.8432C38.7925 17.995 38.8661 18.1347 38.9808 18.2357C39.0956 18.3367 39.2435 18.3919 39.3964 18.3908H39.4462C39.5991 18.3739 39.7403 18.3009 39.8426 18.186C39.9448 18.0711 40.0009 17.9224 40 17.7685C39.3528 10.314 34.1197 5.25515 27.3621 5.42937Z" fill="#09000A"/>
<path d="M27.1567 9.35162C26.9982 9.36115 26.8494 9.43089 26.7407 9.54657C26.6319 9.66224 26.5715 9.81511 26.5718 9.97387C26.5813 10.1323 26.6511 10.2812 26.7668 10.3899C26.8824 10.4987 27.0353 10.5591 27.1941 10.5588C31.2636 10.4343 34.3748 13.5331 34.5677 17.976C34.5787 18.1333 34.6491 18.2806 34.7646 18.3881C34.8802 18.4955 35.0322 18.555 35.1899 18.5547C35.3473 18.5436 35.4946 18.4732 35.602 18.3577C35.7095 18.2422 35.769 18.0902 35.7686 17.9324C35.5571 12.7864 31.9231 9.16495 27.1567 9.35162ZM30.2306 17.8142C30.2417 17.9716 30.3121 18.1189 30.4276 18.2263C30.5431 18.3337 30.6951 18.3933 30.8529 18.3929C31.0102 18.3818 31.1575 18.3114 31.265 18.1959C31.3724 18.0804 31.4319 17.9284 31.4316 17.7706C31.3258 15.2194 29.6208 13.5518 27.2252 13.6016C27.0601 13.6016 26.9019 13.6671 26.7852 13.7838C26.6685 13.9005 26.6029 14.0588 26.6029 14.2238C26.6109 14.3834 26.68 14.5338 26.7958 14.6438C26.9117 14.7539 27.0654 14.8152 27.2252 14.815C28.9861 14.7527 30.156 15.9474 30.2306 17.8142ZM17.655 24.5593C17.1627 24.5593 16.6815 24.7053 16.2722 24.9788C15.8629 25.2523 15.5439 25.641 15.3555 26.0958C15.1671 26.5506 15.1178 27.0511 15.2138 27.5339C15.3099 28.0167 15.5469 28.4602 15.895 28.8083C16.2431 29.1564 16.6866 29.3935 17.1694 29.4895C17.6522 29.5855 18.1527 29.5362 18.6075 29.3479C19.0623 29.1595 19.451 28.8405 19.7245 28.4311C19.998 28.0218 20.144 27.5406 20.144 27.0483C20.144 26.3882 19.8818 25.7551 19.415 25.2884C18.9482 24.8216 18.3151 24.5593 17.655 24.5593ZM17.655 28.2928C17.4103 28.2867 17.1728 28.2086 16.9723 28.0681C16.7718 27.9277 16.6171 27.7313 16.5277 27.5034C16.4382 27.2755 16.418 27.0264 16.4694 26.787C16.5209 26.5477 16.6418 26.3289 16.8171 26.1579C16.9923 25.987 17.214 25.8715 17.4545 25.826C17.6951 25.7804 17.9437 25.8068 18.1693 25.9018C18.3949 25.9969 18.5874 26.1563 18.7228 26.3603C18.8583 26.5642 18.9305 26.8035 18.9306 27.0483C18.929 27.3856 18.7938 27.7084 18.5548 27.9463C18.3158 28.1842 17.9922 28.3177 17.655 28.3177V28.2928Z" fill="#09000A"/>
</svg>
