<svg width="42" height="42" viewBox="0 0 42 42" fill="none" xmlns="http://www.w3.org/2000/svg">
<path d="M23.131 26.7904L25.058 24.2808L28.477 24.9559C29.3542 25.132 30.1415 25.6016 30.6814 26.2767C30.8313 26.4602 31.0488 26.5629 31.2737 26.5629C31.4312 26.5629 31.5961 26.5115 31.7311 26.4088C32.061 26.1593 32.1135 25.697 31.8585 25.3815C31.0938 24.4276 29.9991 23.7598 28.7694 23.5177L25.028 22.7839L23.236 21.6172V19.9222C25.6878 18.8655 27.4573 16.5688 27.7047 13.8391C29.0093 13.5236 29.9841 12.3716 29.9841 10.9994V8.79804C29.9841 4.98971 26.775 0.726444 22.4862 0.726444H19.0896C17.0502 0.726444 15.2057 1.69504 14.0585 3.28734C14.0061 3.26533 13.9536 3.24331 13.9011 3.22864V1.66568C13.9011 0.748457 13.1363 0 12.1916 0H10.2871C9.34237 0 8.57759 0.748457 8.57759 1.66568V3.22864C8.21019 3.35338 7.85029 3.50014 7.50539 3.66891L6.37321 2.5609C5.7059 1.90783 4.6262 1.90783 3.96638 2.5609L2.61676 3.8817C1.94945 4.53477 1.94945 5.59141 2.61676 6.23714L3.74895 7.34515C3.57649 7.68269 3.42654 8.03491 3.29907 8.39446H1.70202C0.764785 8.39446 0 9.14292 0 10.0675V11.9313C0 12.8559 0.764785 13.6043 1.70202 13.6043H3.29907C3.42654 13.9639 3.57649 14.3161 3.74895 14.6536L2.61676 15.7616C1.94945 16.4147 1.94945 17.4713 2.61676 18.1171L3.96638 19.4379C4.6337 20.0909 5.71339 20.0909 6.37321 19.4379L7.50539 18.3299C7.85029 18.4986 8.21019 18.6454 8.57759 18.7701V20.3331C8.57759 21.2503 9.34237 21.9988 10.2871 21.9988H12.1916C13.1363 21.9988 13.9011 21.2503 13.9011 20.3331V18.7628C14.2535 18.6454 14.5834 18.506 14.9133 18.3519C15.1382 18.5793 15.3857 18.7848 15.6406 18.9756L16.1055 19.4305C16.4129 19.7314 16.8178 19.8928 17.2377 19.9148V21.6025L15.4457 22.7692L11.7117 23.503C9.2674 23.98 7.49039 26.1006 7.49039 28.5368V39.6022C7.49039 40.0058 7.8278 40.336 8.24018 40.336C8.65257 40.336 8.98997 40.0058 8.98997 39.6022V28.5368C8.98997 26.7904 10.2571 25.2788 12.0041 24.9412L15.4232 24.2735L17.3501 26.783L17.9799 28.0084L17.2452 37.3421C17.2302 37.5549 17.3051 37.7677 17.4626 37.9145L19.712 40.1158C19.8619 40.2626 20.0494 40.3286 20.2443 40.3286C20.4393 40.3286 20.6267 40.2552 20.7767 40.1158L23.026 37.9145C23.1835 37.7604 23.2585 37.5549 23.2435 37.3421L22.5087 28.0084L23.1385 26.783L23.131 26.7904ZM22.4112 25.2861L21.3015 24.2001L22.5836 22.9453L23.6633 23.6498L22.4112 25.2861ZM21.7439 21.6979L20.2443 23.1655L18.7447 21.6979V20.3844C19.2321 20.4798 19.7345 20.5312 20.2443 20.5312C20.7542 20.5312 21.2565 20.4798 21.7439 20.3844V21.6979ZM20.2443 19.0636C18.8947 19.0636 17.65 18.616 16.6453 17.8749L15.6481 16.899C15.6481 16.899 15.5881 16.8623 15.5506 16.8403C14.7334 15.835 14.246 14.5729 14.246 13.1934V12.2101C14.9058 11.8946 16.0455 11.2048 16.7878 9.94274C18.1074 10.8233 21.0991 12.3129 26.2426 12.4523V13.1934C26.2426 16.4294 23.5509 19.0636 20.2443 19.0636ZM12.4615 13.7364C12.0791 13.8978 11.6667 13.9932 11.2468 13.9932C9.55231 13.9932 8.1802 12.6504 8.1802 10.992C8.1802 9.59052 9.16992 8.42381 10.497 8.09361V10.992C10.497 12.2542 11.3218 13.3255 12.4615 13.7364ZM19.0971 2.18667H22.4937C25.9277 2.18667 28.492 5.67213 28.492 8.7907V10.992C28.492 11.535 28.1846 11.9973 27.7422 12.2541V11.7258C27.7422 11.3222 27.4048 10.992 26.9924 10.992C19.9519 10.992 17.0502 8.29907 17.0277 8.26972C16.8478 8.08627 16.5778 8.01289 16.3229 8.0716C16.068 8.1303 15.8655 8.31374 15.7831 8.55589C15.1682 10.3683 13.2713 11.0214 13.2563 11.0287C12.9489 11.1315 12.7464 11.4103 12.7464 11.7258V12.2541C12.304 11.9973 11.9966 11.535 11.9966 10.992V7.32314C11.9966 6.1124 13.0088 5.12179 14.246 5.12179C14.5309 5.12179 14.7933 4.9677 14.9133 4.71821C15.7081 3.15526 17.3126 2.18667 19.0971 2.18667ZM12.9639 17.508C12.6339 17.5961 12.409 17.8823 12.409 18.2198V20.3331C12.409 20.4432 12.3115 20.5312 12.1991 20.5312H10.2946C10.1821 20.5312 10.0847 20.4432 10.0847 20.3331V18.2198C10.0847 17.8823 9.85223 17.5961 9.52232 17.508C8.9 17.3539 8.30766 17.1118 7.76032 16.7889C7.4679 16.6128 7.08551 16.6642 6.84558 16.899L5.31601 18.3959C5.23353 18.4766 5.10606 18.4766 5.02359 18.3959L3.67397 17.0751C3.62148 17.0237 3.61398 16.9724 3.61398 16.9357C3.61398 16.899 3.62148 16.8403 3.67397 16.7963L5.20354 15.2993C5.44347 15.0645 5.49595 14.6903 5.31601 14.4041C4.9861 13.8758 4.74617 13.2961 4.58121 12.6797C4.49873 12.3569 4.19882 12.1294 3.85392 12.1294H1.69452C1.58206 12.1294 1.49208 12.034 1.49208 11.9239V10.0601C1.49208 9.95008 1.58206 9.85468 1.69452 9.85468H3.85392C4.19882 9.85468 4.49124 9.62721 4.58121 9.30435C4.73867 8.69531 4.9861 8.11562 5.31601 7.57996C5.49595 7.29379 5.44347 6.91956 5.20354 6.68475L3.67397 5.18784C3.62148 5.13647 3.61398 5.08511 3.61398 5.04842C3.61398 5.01173 3.62148 4.95302 3.67397 4.909L5.02359 3.58819C5.10606 3.50748 5.23353 3.50748 5.31601 3.58819L6.84558 5.08511C7.08551 5.31992 7.4679 5.37128 7.76032 5.19517C8.30017 4.87231 8.8925 4.6375 9.52232 4.47607C9.85223 4.39535 10.0847 4.10184 10.0847 3.7643V1.65101C10.0847 1.54094 10.1821 1.45289 10.2946 1.45289H12.1991C12.3115 1.45289 12.409 1.54094 12.409 1.65101V3.7643C12.409 3.8817 12.4465 3.98443 12.4915 4.07982C11.5243 4.58613 10.812 5.49602 10.5795 6.57468C8.37515 6.89021 6.68062 8.74667 6.68062 10.992C6.68062 13.4576 8.72755 15.4608 11.2468 15.4608C11.8542 15.4608 12.454 15.3287 13.0088 15.1012C13.2113 15.8423 13.5337 16.5468 13.9536 17.1778C13.6387 17.3099 13.3088 17.4273 12.9714 17.5154L12.9639 17.508ZM17.8975 22.938L19.1796 24.1928L18.0699 25.2788L16.8178 23.6424L17.8975 22.938ZM20.2443 38.5676L18.7672 37.122L19.487 27.9204C19.4945 27.7883 19.472 27.6562 19.412 27.5388L18.9022 26.5409L20.2368 25.2347L21.5714 26.5409L21.0616 27.5388C21.0016 27.6562 20.9716 27.7883 20.9866 27.9204L21.7064 37.122L20.2293 38.5676H20.2443Z" fill="black"/>
<path d="M11.9959 30.0708C11.5835 30.0708 11.2461 30.401 11.2461 30.8046V39.6099C11.2461 40.0135 11.5835 40.3437 11.9959 40.3437C12.4083 40.3437 12.7457 40.0135 12.7457 39.6099V30.8046C12.7457 30.401 12.4083 30.0708 11.9959 30.0708ZM41.89 31.8612C41.68 31.2375 41.1477 30.7899 40.4954 30.6945L37.4362 30.2395L36.0491 27.3778C35.7567 26.7688 35.1569 26.3945 34.4896 26.3945C33.8222 26.3945 33.2224 26.7688 32.93 27.3778L31.5429 30.2395L28.4837 30.6945C27.8389 30.7899 27.3066 31.2375 27.0891 31.8612C26.8717 32.5069 27.0292 33.204 27.5165 33.681L29.7434 35.8823L29.211 39.0229C29.0986 39.7053 29.376 40.3731 29.9383 40.762C30.4707 41.1362 31.1605 41.1729 31.7378 40.8647L34.4971 39.3898L37.2563 40.8647C37.5112 41.0041 37.7961 41.0702 38.0735 41.0702C38.4185 41.0702 38.7634 40.9674 39.0558 40.762C39.6181 40.3731 39.8955 39.7053 39.7831 39.0229L39.2507 35.8823L41.4776 33.681C41.9575 33.204 42.1224 32.5069 41.905 31.8612H41.89ZM40.3979 32.6537L37.9086 35.1265C37.7436 35.2953 37.6612 35.5301 37.7062 35.7649L38.2985 39.2724C38.3285 39.4558 38.216 39.5512 38.1785 39.5732C38.0735 39.6466 37.9911 39.6026 37.9686 39.5879L34.8495 37.9222C34.737 37.8635 34.617 37.8342 34.4896 37.8342C34.3621 37.8342 34.2421 37.8635 34.1297 37.9222L31.0105 39.5879C31.0105 39.5879 30.8981 39.6466 30.8006 39.5732C30.7631 39.5512 30.6506 39.4558 30.6806 39.2724L31.273 35.7649C31.3105 35.5301 31.2355 35.2953 31.0705 35.1265L28.5812 32.6537C28.4538 32.5289 28.4987 32.3748 28.5137 32.3308C28.5362 32.2721 28.5887 32.1694 28.7087 32.1547L32.1652 31.6411C32.4126 31.6044 32.6226 31.4503 32.7276 31.2302L34.2871 28.0162C34.3996 27.774 34.587 27.774 34.6995 28.0162L36.2591 31.2302C36.364 31.4503 36.574 31.6044 36.8214 31.6411L40.2779 32.1547C40.3979 32.1694 40.4504 32.2721 40.4729 32.3308C40.4879 32.3748 40.5254 32.5363 40.4054 32.6537H40.3979Z" fill="black"/>
</svg>
