<svg width="25" height="26" viewBox="0 0 25 26" fill="none" xmlns="http://www.w3.org/2000/svg">
<path d="M22.7456 2.49585C23.2976 2.49585 23.745 2.94334 23.745 3.49531C23.745 4.04784 23.2975 4.49527 22.7456 4.49527C22.1935 4.49527 21.7461 4.04779 21.7461 3.49531C21.7461 2.94329 22.1936 2.49585 22.7456 2.49585Z" fill="#F2F2F2"/>
<path d="M22.7456 19.9879C23.2975 19.9879 23.745 19.5405 23.745 18.9885C23.745 18.4365 23.2975 17.989 22.7456 17.989C22.1936 17.989 21.7461 18.4365 21.7461 18.9885C21.7461 19.5405 22.1936 19.9879 22.7456 19.9879Z" fill="#F2F2F2"/>
<path d="M24.5026 11.2426C23.2523 13.0116 21.6281 14.4929 19.7471 15.5675C18.5361 16.2604 17.2181 16.7845 15.8248 17.1096C16.0632 16.5417 16.4147 16.0205 16.8612 15.577C17.9906 14.4556 18.6899 12.9021 18.6899 11.1849C18.6899 7.7942 15.9637 5.04012 12.584 4.99585C17.3823 5.02268 21.775 7.38399 24.5026 11.2426Z" fill="#F2F2F2"/>
<path d="M12.5 4.99585C9.03247 4.99585 6.27105 7.86386 6.31097 11.2595C6.33041 12.9434 7.02276 14.466 8.13175 15.5705C8.57974 16.0165 8.93313 16.5397 9.17404 17.1096C9.59389 18.103 9.53393 18.9283 9.53988 18.9896H15.4601V18.904C15.4601 18.2813 15.587 17.6725 15.8244 17.1101C16.0628 16.5422 16.4143 16.021 16.8607 15.5775C17.9901 14.456 18.6894 12.9025 18.6894 11.1853C18.6895 7.79085 15.9428 4.99585 12.5 4.99585Z" fill="#F2F2F2"/>
<path d="M15.5491 18.9883C16.1011 18.9883 16.5486 19.4358 16.5486 19.9877C16.5486 20.5396 16.1016 20.9872 15.5491 20.9872C14.8595 20.9872 10.1824 20.9872 9.50192 20.9872C8.94939 20.9872 8.50195 20.5397 8.50195 19.9877C8.50195 19.4354 8.94949 18.9883 9.50192 18.9883C10.104 18.9883 14.0565 18.9883 15.4605 18.9883H15.5491Z" fill="#F2F2F2"/>
<path d="M15.2491 20.9885V22.4902C15.2491 22.765 15.0266 22.988 14.7514 22.988C14.1863 22.988 10.8188 22.988 10.2497 22.988C9.97447 22.988 9.75195 22.765 9.75195 22.4902V20.9885H15.2491Z" fill="#F2F2F2"/>
<path d="M14.2501 22.9873V23.2372C14.2501 24.2033 13.4672 24.9862 12.501 24.9862C11.5349 24.9862 10.752 24.2033 10.752 23.2372V22.9873H14.2501Z" fill="#F2F2F2"/>
<path d="M14.2501 13.4919V15.4909L13.5005 16.4909V18.9896H11.5016V16.4909L10.752 15.4909V13.4919H14.2501Z" fill="#F2F2F2"/>
<path d="M12.4995 2.49599C13.0515 2.49599 13.4989 2.04852 13.4989 1.49653C13.4989 0.944544 13.0515 0.49707 12.4995 0.49707C11.9475 0.49707 11.5 0.944544 11.5 1.49653C11.5 2.04852 11.9475 2.49599 12.4995 2.49599Z" fill="#F2F2F2"/>
<path d="M8.13206 15.5696C8.58004 16.0156 8.93344 16.5387 9.17434 17.1086C5.61794 16.2794 2.55379 14.15 0.498047 11.2421C3.17592 7.45375 7.52576 5.03268 12.3858 4.99585C9.0021 5.05706 6.27145 7.87086 6.31128 11.2586C6.33072 12.9424 7.02311 14.465 8.13206 15.5696Z" fill="#F2F2F2"/>
<path d="M2.25337 2.49585C2.80539 2.49585 3.25283 2.94334 3.25283 3.49531C3.25283 4.04784 2.80534 4.49527 2.25337 4.49527C1.70139 4.49527 1.25391 4.04779 1.25391 3.49531C1.25386 2.94329 1.70134 2.49585 2.25337 2.49585Z" fill="#F2F2F2"/>
<path d="M2.25337 19.9879C2.80536 19.9879 3.25283 19.5405 3.25283 18.9885C3.25283 18.4365 2.80536 17.989 2.25337 17.989C1.70138 17.989 1.25391 18.4365 1.25391 18.9885C1.25391 19.5405 1.70138 19.9879 2.25337 19.9879Z" fill="#F2F2F2"/>
<path d="M15.4601 19.4874H9.53962C9.26474 19.4874 9.04187 19.2646 9.04187 18.9897V18.9043C9.04187 17.7921 8.59393 16.7334 7.78061 15.9233C6.53239 14.6801 5.8336 13.0258 5.81297 11.2652C5.76949 7.56019 8.77098 4.49805 12.5008 4.49805C16.1756 4.49805 19.1872 7.47015 19.1872 11.1854C19.1872 12.9807 18.4855 14.666 17.2115 15.9309C16.403 16.7336 15.9578 17.7896 15.9578 18.9043V18.9897C15.9579 19.2646 15.735 19.4874 15.4601 19.4874ZM10.0208 18.492H14.9788C15.0769 17.2639 15.6119 16.1163 16.5101 15.2244C17.5945 14.1479 18.1917 12.7134 18.1917 11.1854C18.1917 8.01003 15.5982 5.44799 12.4187 5.49416C9.28847 5.53778 6.77175 8.12141 6.80843 11.2536C6.82597 12.7519 7.42077 14.1599 8.48315 15.218C9.38492 16.1162 9.92215 17.2661 10.0208 18.492Z" fill="black" fill-opacity="0.8"/>
<path d="M15.5485 21.488H9.50118C8.67556 21.488 8.00391 20.8163 8.00391 19.9907C8.00391 19.1651 8.67556 18.4934 9.50118 18.4934H15.5486C16.3742 18.4934 17.0459 19.1651 17.0459 19.9907C17.0459 20.8163 16.3741 21.488 15.5485 21.488ZM9.50118 19.4889C9.22449 19.4889 8.99937 19.714 8.99937 19.9907C8.99937 20.2675 9.22449 20.4926 9.50118 20.4926H15.5486C15.8253 20.4926 16.0504 20.2675 16.0504 19.9907C16.0504 19.714 15.8253 19.4889 15.5486 19.4889H9.50118Z" fill="black" fill-opacity="0.8"/>
<path d="M14.7515 23.4841H10.2494C9.70049 23.4841 9.25391 23.0376 9.25391 22.4886V20.9873C9.25391 20.7124 9.47678 20.4895 9.75166 20.4895H15.2493C15.5242 20.4895 15.747 20.7124 15.747 20.9873V22.4886C15.747 23.0376 15.3005 23.4841 14.7515 23.4841ZM10.2494 21.485V22.4886C10.4375 22.4886 9.36624 22.4886 14.7521 22.4886L14.7517 21.485H10.2494Z" fill="black" fill-opacity="0.8"/>
<path d="M12.5009 25.4849C11.2619 25.4849 10.2539 24.4769 10.2539 23.2379V22.988C10.2539 22.7131 10.4768 22.4902 10.7517 22.4902H14.2501C14.525 22.4902 14.7479 22.7131 14.7479 22.988V23.2379C14.7479 24.4769 13.7399 25.4849 12.5009 25.4849ZM11.2741 23.4857C11.3894 24.0575 11.8956 24.4894 12.5009 24.4894C13.1061 24.4894 13.6124 24.0575 13.7277 23.4857H11.2741Z" fill="black" fill-opacity="0.8"/>
<path d="M12.4997 11.9918C12.2286 11.9918 12.002 11.7706 12.002 11.4941C12.002 11.227 12.2188 10.9961 12.4997 10.9961C12.7764 10.9961 12.9975 11.2231 12.9975 11.4941C12.9975 11.7662 12.7751 11.9918 12.4997 11.9918Z" fill="black" fill-opacity="0.8"/>
<path d="M13.668 10.2045C13.003 9.6293 12.0001 9.62935 11.3351 10.2045C11.1273 10.3843 10.8129 10.3617 10.6331 10.1537C10.4532 9.94586 10.4759 9.6315 10.6838 9.45165C11.7201 8.55523 13.283 8.55513 14.3193 9.45165C14.5272 9.6315 14.5499 9.94581 14.3701 10.1537C14.1902 10.3616 13.8759 10.3844 13.668 10.2045Z" fill="black" fill-opacity="0.8"/>
<path d="M14.6719 8.3C13.4328 7.22798 11.5642 7.22808 10.3254 8.3C10.1174 8.47984 9.80308 8.45711 9.62329 8.24923C9.44344 8.04135 9.46613 7.72699 9.67406 7.54714C10.458 6.86889 11.4612 6.49536 12.4986 6.49536C12.4988 6.49536 12.4988 6.49536 12.499 6.49536C13.5363 6.49546 14.5394 6.86894 15.3232 7.54714C15.5311 7.72699 15.5538 8.04135 15.374 8.24923C15.1944 8.45676 14.8802 8.48009 14.6719 8.3Z" fill="black" fill-opacity="0.8"/>
<path d="M13.5004 19.4873H11.5013C11.2264 19.4873 11.0035 19.2644 11.0035 18.9895V16.6565L10.3534 15.7897C10.2888 15.7035 10.2539 15.5988 10.2539 15.491V13.4919C10.2539 13.217 10.4768 12.9941 10.7517 12.9941H14.2501C14.525 12.9941 14.7479 13.217 14.7479 13.4919V15.491C14.7479 15.5988 14.7129 15.7035 14.6483 15.7897L13.9983 16.6565V18.9895C13.9982 19.2644 13.7753 19.4873 13.5004 19.4873ZM11.999 18.4918H13.0027V16.4906C13.0027 16.3829 13.0376 16.2782 13.1022 16.192L13.7523 15.3252V13.9897H11.2494V15.3252L11.8994 16.192C11.9641 16.2782 11.999 16.3829 11.999 16.4906V18.4918H11.999Z" fill="black" fill-opacity="0.8"/>
<path d="M15.8241 17.6079C15.5979 17.6079 15.3933 17.4527 15.3398 17.223C15.2774 16.9553 15.4439 16.6876 15.7116 16.6253C18.9764 15.8647 21.8667 13.9589 23.8874 11.2431C21.2016 7.63615 16.9715 5.49356 12.5 5.49356C8.02853 5.49356 3.79837 7.63615 1.11265 11.2432C3.13321 13.9584 6.02291 15.8639 9.28699 16.6248C9.55473 16.6872 9.72118 16.9548 9.65877 17.2226C9.59636 17.4902 9.32871 17.6566 9.06097 17.5943C5.4453 16.7514 2.25982 14.5979 0.0912963 11.5305C-0.0304321 11.3583 -0.0304321 11.128 0.0912963 10.9558C2.86971 7.02521 7.41519 4.49805 12.5 4.49805C17.5946 4.49805 22.1357 7.03295 24.9087 10.9558C25.0304 11.128 25.0304 11.3582 24.9087 11.5304C22.74 14.5986 19.554 16.7523 15.9374 17.5948C15.8995 17.6037 15.8615 17.6079 15.8241 17.6079Z" fill="black" fill-opacity="0.8"/>
<path d="M2.25508 4.99532C1.42947 4.99532 0.757812 4.32366 0.757812 3.49805C0.757812 2.67244 1.42947 2.00073 2.25508 2.00073C3.0807 2.00073 3.7524 2.67244 3.7524 3.49805C3.7524 4.32366 3.0807 4.99532 2.25508 4.99532ZM2.25508 2.99625C1.97839 2.99625 1.75328 3.22136 1.75328 3.4981C1.75328 3.77479 1.97839 3.99991 2.25508 3.99991C2.53182 3.99991 2.75694 3.77479 2.75694 3.4981C2.75689 3.22131 2.53182 2.99625 2.25508 2.99625Z" fill="black" fill-opacity="0.8"/>
<path d="M5.25469 7.41582C4.97981 7.41582 4.75694 7.19295 4.75694 6.91806V3.99478H3.25557C2.98068 3.99478 2.75781 3.77191 2.75781 3.49702C2.75781 3.22214 2.98068 2.99927 3.25557 2.99927H5.25469C5.52958 2.99927 5.75245 3.22214 5.75245 3.49702V6.91806C5.75245 7.19295 5.52958 7.41582 5.25469 7.41582Z" fill="black" fill-opacity="0.8"/>
<path d="M22.7454 4.99532C21.9198 4.99532 21.248 4.32366 21.248 3.49805C21.248 2.67244 21.9198 2.00073 22.7454 2.00073C23.571 2.00073 24.2426 2.67244 24.2426 3.49805C24.2426 4.32366 23.571 4.99532 22.7454 4.99532ZM22.7454 2.99625C22.4686 2.99625 22.2435 3.22136 22.2435 3.4981C22.2435 3.77479 22.4686 3.99991 22.7454 3.99991C23.0221 3.99991 23.2472 3.77479 23.2472 3.4981C23.2472 3.22131 23.0221 2.99625 22.7454 2.99625Z" fill="black" fill-opacity="0.8"/>
<path d="M19.7478 7.41627C19.4729 7.41627 19.25 7.1934 19.25 6.91851V3.49702C19.25 3.22214 19.4729 2.99927 19.7478 2.99927H21.7469C22.0218 2.99927 22.2446 3.22214 22.2446 3.49702C22.2446 3.77191 22.0218 3.99478 21.7469 3.99478H20.2455V6.91851C20.2455 7.1934 20.0226 7.41627 19.7478 7.41627Z" fill="black" fill-opacity="0.8"/>
<path d="M2.25508 20.4875C1.42947 20.4875 0.757812 19.8158 0.757812 18.9902C0.757812 18.1646 1.42947 17.4929 2.25508 17.4929C3.0807 17.4929 3.7524 18.1646 3.7524 18.9902C3.7524 19.8158 3.0807 20.4875 2.25508 20.4875ZM2.25508 18.4884C1.97839 18.4884 1.75328 18.7135 1.75328 18.9902C1.75328 19.2669 1.97839 19.492 2.25508 19.492C2.53182 19.492 2.75694 19.2669 2.75694 18.9902C2.75689 18.7135 2.53182 18.4884 2.25508 18.4884Z" fill="black" fill-opacity="0.8"/>
<path d="M5.25469 19.4861H3.25557C2.98068 19.4861 2.75781 19.2632 2.75781 18.9883C2.75781 18.7134 2.98068 18.4906 3.25557 18.4906H4.75694V15.5673C4.75694 15.2925 4.97981 15.0696 5.25469 15.0696C5.52958 15.0696 5.75245 15.2925 5.75245 15.5673V18.9883C5.75245 19.2632 5.52958 19.4861 5.25469 19.4861Z" fill="black" fill-opacity="0.8"/>
<path d="M22.7454 20.4875C21.9198 20.4875 21.248 19.8158 21.248 18.9902C21.248 18.1646 21.9198 17.4929 22.7454 17.4929C23.571 17.4929 24.2426 18.1646 24.2426 18.9902C24.2427 19.8158 23.571 20.4875 22.7454 20.4875ZM22.7454 18.4884C22.4686 18.4884 22.2435 18.7135 22.2435 18.9902C22.2435 19.2669 22.4686 19.492 22.7454 19.492C23.0221 19.492 23.2472 19.2669 23.2472 18.9902C23.2472 18.7135 23.0221 18.4884 22.7454 18.4884Z" fill="black" fill-opacity="0.8"/>
<path d="M21.7469 19.488H19.7478C19.4729 19.488 19.25 19.2652 19.25 18.9903V15.5688C19.25 15.2939 19.4729 15.071 19.7478 15.071C20.0226 15.071 20.2455 15.2939 20.2455 15.5688V18.4925H21.7469C22.0218 18.4925 22.2446 18.7154 22.2446 18.9903C22.2446 19.2652 22.0218 19.488 21.7469 19.488Z" fill="black" fill-opacity="0.8"/>
<path d="M12.4993 2.99464C11.6737 2.99464 11.002 2.32298 11.002 1.49737C11.002 0.671754 11.6737 0 12.4993 0C13.3249 0 13.9966 0.671705 13.9966 1.49732C13.9966 2.32293 13.3249 2.99464 12.4993 2.99464ZM12.4993 0.995514C12.2225 0.995514 11.9974 1.22063 11.9974 1.49737C11.9974 1.77406 12.2225 1.99917 12.4993 1.99917C12.776 1.99917 13.0011 1.77406 13.0011 1.49737C13.0011 1.22058 12.776 0.995514 12.4993 0.995514Z" fill="black" fill-opacity="0.8"/>
<path d="M12.4997 5.49513C12.2248 5.49513 12.002 5.27226 12.002 4.99737V2.49849C12.002 2.2236 12.2248 2.00073 12.4997 2.00073C12.7746 2.00073 12.9975 2.2236 12.9975 2.49849V4.99742C12.9975 5.27226 12.7746 5.49513 12.4997 5.49513Z" fill="black" fill-opacity="0.8"/>
</svg>
