<svg width="40" height="47" viewBox="0 0 40 47" fill="none" xmlns="http://www.w3.org/2000/svg">
<path d="M15.3533 39.6492L11.3333 37.5832V35.5713C12.3867 34.7156 13.1267 33.3666 13.2933 31.8248C14.46 31.4933 15.3333 30.2831 15.3333 28.8338V26.5212C15.3333 22.2737 12.34 18.8125 8.66667 18.8125C4.99333 18.8125 2 22.2737 2 26.5212V28.8338C2 30.2831 2.87333 31.4933 4.04 31.8248C4.20667 33.3666 4.94667 34.7156 6 35.5713V37.5832L1.98 39.6492C0.78 40.2736 0 41.6534 0 43.1721V45.793C0 46.217 0.3 46.5639 0.666667 46.5639H16.6667C17.0333 46.5639 17.3333 46.217 17.3333 45.793V43.1721C17.3333 41.6534 16.5533 40.2736 15.3533 39.6492ZM10 37.668L8.66667 38.701L7.33333 37.668V36.319C7.75333 36.4578 8.2 36.5426 8.66667 36.5426C9.13333 36.5426 9.58 36.4578 10 36.319V37.668ZM8.66667 35.0008C6.82667 35.0008 5.33333 33.2741 5.33333 31.1465V28.063H8C8.18 28.063 8.34667 27.9782 8.47333 27.8394L9.33333 26.8373L10.1933 27.8394C10.32 27.9782 10.4867 28.063 10.6667 28.063H12V31.1465C12 33.2741 10.5067 35.0008 8.66667 35.0008Z" fill="black"/>
<path d="M37.333 0.3125H11.9997C10.5263 0.3125 9.33301 1.69236 9.33301 3.39599V16.6164C9.33301 17.0404 9.63301 17.3873 9.99967 17.3873C10.3663 17.3873 10.6663 17.0404 10.6663 16.6164V3.39599C10.6663 2.54803 11.2663 1.85424 11.9997 1.85424H37.333C38.0663 1.85424 38.6663 2.54803 38.6663 3.39599V43.4813C38.6663 44.3293 38.0663 45.0231 37.333 45.0231H19.333C18.9663 45.0231 18.6663 45.37 18.6663 45.7939C18.6663 46.2179 18.9663 46.5648 19.333 46.5648H37.333C38.8063 46.5648 39.9997 45.185 39.9997 43.4813V3.39599C39.9997 1.69236 38.8063 0.3125 37.333 0.3125Z" fill="black"/>
<path d="M24.3137 22.5527C24.4203 22.6298 24.547 22.6683 24.667 22.6683C24.787 22.6683 24.9137 22.6298 25.0203 22.5527L27.3603 20.8645C29.4003 19.3921 30.667 16.7018 30.667 13.8418V9.05472C30.667 8.74638 30.507 8.46115 30.2537 8.34552L24.9203 5.77852C24.7537 5.70143 24.5737 5.70143 24.407 5.77852L19.0737 8.34552C18.827 8.46886 18.6603 8.74638 18.6603 9.05472V13.8418C18.6603 16.7018 19.927 19.3921 21.967 20.8645L24.307 22.5527H24.3137ZM21.527 12.8782C21.787 12.5776 22.207 12.5776 22.467 12.8782L23.9537 14.5973L26.8203 10.6196C27.0537 10.2958 27.4737 10.2496 27.7603 10.5194C28.0403 10.7892 28.0803 11.2748 27.847 11.6063L24.5137 16.2315C24.3937 16.4011 24.2203 16.5013 24.0337 16.5091C24.027 16.5091 24.0137 16.5091 24.007 16.5091C23.8337 16.5091 23.6603 16.432 23.5337 16.2855L21.5337 13.9729C21.2737 13.6722 21.2737 13.1866 21.5337 12.886L21.527 12.8782ZM16.667 26.5227C16.667 26.9467 16.967 27.2936 17.3337 27.2936H32.0003C32.367 27.2936 32.667 26.9467 32.667 26.5227C32.667 26.0987 32.367 25.7518 32.0003 25.7518H17.3337C16.967 25.7518 16.667 26.0987 16.667 26.5227ZM17.3337 31.9188H32.0003C32.367 31.9188 32.667 31.5719 32.667 31.1479C32.667 30.7239 32.367 30.377 32.0003 30.377H17.3337C16.967 30.377 16.667 30.7239 16.667 31.1479C16.667 31.5719 16.967 31.9188 17.3337 31.9188ZM32.667 35.7731C32.667 35.3492 32.367 35.0023 32.0003 35.0023H17.3337C16.967 35.0023 16.667 35.3492 16.667 35.7731C16.667 36.1971 16.967 36.544 17.3337 36.544H32.0003C32.367 36.544 32.667 36.1971 32.667 35.7731ZM22.0003 39.6275C21.6337 39.6275 21.3337 39.9744 21.3337 40.3984C21.3337 40.8224 21.6337 41.1693 22.0003 41.1693H27.3337C27.7003 41.1693 28.0003 40.8224 28.0003 40.3984C28.0003 39.9744 27.7003 39.6275 27.3337 39.6275H22.0003Z" fill="black"/>
</svg>
