<svg width="50" height="42" viewBox="0 0 50 42" fill="none" xmlns="http://www.w3.org/2000/svg">
<path d="M7.93311 12.4561H13.4544V17.0291H7.93311V12.4561Z" fill="black"/>
<path d="M14.5708 11.183C13.9194 13.6219 12.4693 15.478 10.7245 15.478C8.97968 15.478 7.47528 13.5771 6.8239 11.1382C5.96314 10.4298 5.76927 7.87427 6.49045 7.90117C6.6533 4.35035 8.48338 1.55273 10.7245 1.55273C12.9655 1.55273 14.6173 4.35932 14.7724 7.9191C15.6021 7.5425 15.5168 10.5284 14.5708 11.183Z" fill="#9CCDFF"/>
<path d="M14.2141 9.72107H14.4545C14.881 7.94566 15.1446 5.91021 14.9973 4.2693C14.6483 1.70482 13.0509 0.440517 10.9881 0.646751C9.69313 0.790219 8.78584 1.25649 8.37484 2.13523C7.32797 1.39099 6.58353 1.79449 6.2811 3.8927C6.04071 5.89228 6.28885 7.94566 6.63781 9.7659L6.93249 9.739C6.3664 5.34531 11.0734 3.1664 13.5472 6.42132L13.3378 5.47981C14.1133 6.36752 14.3924 7.95462 14.2141 9.72107Z" fill="black"/>
<path d="M13.8811 15.4774C13.8734 19.6649 12.1596 24.9642 10.694 30.2635C9.22836 24.9642 7.51459 19.6649 7.50684 15.4774L9.63935 19.2076L10.694 17.0376L11.7486 19.2076L13.8811 15.4774Z" fill="white"/>
<path d="M12.4616 30.2544H8.88672L10.1042 19.4495H11.2441L12.4616 30.2544Z" fill="black"/>
<path d="M11.2595 19.4506H10.1274L8.84009 17.0386H12.5468L11.2595 19.4506Z" fill="black"/>
<path d="M10.694 17.0292L9.63935 19.2081L7.50684 15.478L7.93334 14.6979L10.694 17.0292ZM13.8811 15.478L11.7486 19.2081L10.694 17.0292L13.4546 14.6979L13.8811 15.478Z" fill="black"/>
<path d="M6.71543 22.3997L7.22724 20.0504L6.18812 19.4228L6.00977 16.7776L7.50641 15.4774C7.51416 19.6649 9.22793 24.9642 10.6935 30.2635C9.04182 27.9412 7.68476 25.3587 6.71543 22.3997Z" fill="black"/>
<path d="M10.6935 30.2546H1.19408C0.457388 30.2546 -0.100944 29.4925 0.0153754 28.6586L1.02347 21.4672C1.1553 20.4988 1.64384 19.647 2.36502 19.1269C3.37312 18.3917 4.39673 17.5667 6.00969 16.7866L6.18804 19.4318L7.22716 20.0595L6.71536 22.4088C7.68468 25.3588 9.04174 27.9412 10.6935 30.2546Z" fill="black"/>
<path d="M15.199 19.4239L14.1599 20.0516L14.6717 22.4009C13.7024 25.3599 12.3453 27.9423 10.6936 30.2557C12.1592 24.9564 13.873 19.666 13.8807 15.4696L15.3774 16.7787L15.199 19.4239Z" fill="black"/>
<path d="M10.6936 30.2547C12.3453 27.9413 13.7024 25.3589 14.6717 22.3998L14.1599 20.0506L15.199 19.4229L15.3774 16.7777C16.9903 17.5578 18.014 18.3828 19.0221 19.118C19.7355 19.6381 20.224 20.4899 20.3636 21.4583L21.3717 28.6496C21.488 29.4835 20.9297 30.2457 20.193 30.2457H10.6936V30.2547Z" fill="black"/>
<path d="M36.1831 12.4561H41.7044V17.0291H36.1831V12.4561Z" fill="black"/>
<path d="M42.8212 11.183C42.1699 13.6219 40.7197 15.478 38.975 15.478C37.2302 15.478 35.7258 13.5771 35.0744 11.1382C34.2136 10.4298 34.0198 7.87427 34.7409 7.90117C34.9038 4.35035 36.7339 1.55273 38.975 1.55273C41.216 1.55273 42.8678 4.35932 43.0229 7.9191C43.8526 7.5425 43.7673 10.5284 42.8212 11.183Z" fill="#9CCDFF"/>
<path d="M42.4641 9.72107H42.7045C43.131 7.94566 43.3946 5.91021 43.2473 4.2693C42.8983 1.70482 41.3009 0.440517 39.2381 0.646751C37.9431 0.790219 37.0358 1.25649 36.6248 2.13523C35.578 1.39099 34.8335 1.79449 34.5311 3.8927C34.2907 5.89228 34.5389 7.94566 34.8878 9.7659L35.1825 9.739C34.6164 5.34531 39.3234 3.1664 41.7972 6.42132L41.5878 5.47981C42.3633 6.36752 42.6424 7.95462 42.4641 9.72107Z" fill="black"/>
<path d="M42.1306 15.4774C42.1229 19.6649 40.4091 24.9642 38.9435 30.2635C37.4779 24.9732 35.7641 19.6738 35.7563 15.4774L37.8889 19.2076L38.9435 17.0376L39.9981 19.2076L42.1306 15.4774Z" fill="white"/>
<path d="M40.7121 30.2544H37.1372L38.3624 19.4495H39.4946L40.7121 30.2544Z" fill="black"/>
<path d="M39.51 19.4506H38.3778L37.0906 17.0386H40.7973L39.51 19.4506Z" fill="black"/>
<path d="M38.9435 17.0292L37.8889 19.2081L35.7563 15.478L36.1829 14.6979L38.9435 17.0292ZM42.1306 15.478L39.9981 19.2081L38.9435 17.0292L41.7041 14.6979L42.1306 15.478Z" fill="black"/>
<path d="M34.9657 22.3997L35.4775 20.0504L34.4384 19.4228L34.26 16.7776L35.7566 15.4774C35.7644 19.6649 37.4782 24.9642 38.9438 30.2635C37.2921 27.9412 35.935 25.3587 34.9657 22.3997Z" fill="black"/>
<path d="M38.944 30.2546H29.4446C28.7079 30.2546 28.1495 29.4925 28.2659 28.6586L29.274 21.4672C29.4058 20.4988 29.8943 19.647 30.6155 19.1269C31.6236 18.3917 32.6472 17.5667 34.2602 16.7866L34.4385 19.4318L35.4776 20.0595L34.9658 22.4088C35.9352 25.3588 37.2922 27.9412 38.944 30.2546Z" fill="black"/>
<path d="M43.4493 19.4239L42.4102 20.0516L42.922 22.4009C41.9526 25.3599 40.5956 27.9423 38.9438 30.2557C40.4095 24.9564 42.1232 19.666 42.131 15.4696L43.6276 16.7787L43.4493 19.4239Z" fill="black"/>
<path d="M38.9438 30.2547C40.5956 27.9413 41.9526 25.3589 42.922 22.3998L42.4102 20.0506L43.4493 19.4229L43.6276 16.7777C45.2406 17.5578 46.2642 18.3828 47.2723 19.118C47.9857 19.6381 48.4743 20.4899 48.6138 21.4583L49.6219 28.6496C49.7383 29.4835 49.1799 30.2457 48.4432 30.2457H38.9438V30.2547Z" fill="black"/>
<path d="M32.6239 32.3806H17.0061L18.053 16.9847C18.1865 15.0171 18.9569 13.1801 20.2103 11.8404C21.4638 10.5007 23.1081 9.75694 24.815 9.75757C28.3511 9.75757 31.2978 12.9049 31.577 16.9847L32.6239 32.3806Z" fill="black"/>
<path d="M24.8302 41.0772C24.0004 36.531 22.3719 30.4606 22.4805 28.0396C22.4805 29.528 23.5274 30.7296 24.8069 30.7296C26.0942 30.7296 27.1333 29.528 27.1333 28.0396H27.141C27.2651 30.4516 25.6677 36.5221 24.8302 41.0772Z" fill="white"/>
<path d="M24.83 41.0783H14.7025C14.338 41.0783 14.0589 40.6927 14.1287 40.2803L15.571 31.2687C15.6641 29.8789 18.8357 28.2649 20.8519 28.0317H22.4881C22.3718 30.4617 23.9925 36.5322 24.83 41.0783ZM34.9188 41.0962L24.83 41.0783C25.6753 36.5142 27.2727 30.4617 27.1487 28.0317H28.7771C30.8011 28.2649 33.9727 29.8789 34.0658 31.2687L35.5081 40.2803C35.5702 40.6927 35.291 41.0783 34.9188 41.0962Z" fill="black"/>
<path d="M28.2891 31.9414L27.3818 31.7711L28.1108 32.8471C26.9786 35.6716 26.4203 38.0298 24.8383 41.0785C25.6681 36.5234 27.2733 30.453 27.1492 28.0319C27.1492 28.005 27.1492 27.9781 27.1414 27.9602C27.1104 27.5119 27.0174 27.207 26.8468 27.0635C26.9476 27.0904 27.0484 27.1263 27.1414 27.1622C27.8471 27.3953 28.3667 27.7002 28.7777 28.0409C28.7854 29.2245 28.5838 30.5516 28.2891 31.9414ZM21.5271 32.8471L22.2483 31.7711L21.341 31.9414C21.0386 30.5516 20.8369 29.2245 20.8447 28.0319C21.2557 27.6912 21.7753 27.3863 22.4809 27.1532C22.574 27.1173 22.6748 27.0904 22.7756 27.0546C22.5972 27.207 22.5042 27.5477 22.4809 28.023V28.0319C22.3646 30.4619 23.9931 36.5234 24.8228 41.0695C23.2486 38.0209 22.6593 35.6716 21.5271 32.8471Z" fill="black"/>
<path d="M27.1413 25.0538V28.0307C27.1413 29.5192 26.1022 30.7207 24.8149 30.7207C23.5276 30.7207 22.4885 29.5192 22.4885 28.0307V25.0448H27.1413V25.0538Z" fill="black"/>
<path d="M29.7079 21.4137C29.7079 25.2604 27.2497 27.7173 24.8303 27.7173C22.4109 27.7173 19.9604 25.1887 19.9604 21.333C19.9604 21.1178 19.9526 20.4901 19.9449 19.8804C19.9216 18.2395 20.6273 16.6882 21.8448 15.8364C22.6745 15.2536 23.6826 14.8142 24.8303 14.0072C25.3421 16.5089 26.0012 17.2352 28.6301 18.2485C28.9437 18.3675 29.2168 18.5981 29.4103 18.9072C29.6039 19.2164 29.7081 19.5884 29.7079 19.9701V21.4137Z" fill="#9CCDFF"/>
</svg>
