<svg width="42" height="49" viewBox="0 0 42 49" fill="none" xmlns="http://www.w3.org/2000/svg">
<path d="M23.131 31.81L25.058 28.8449L28.477 29.6425C29.3542 29.8506 30.1415 30.4055 30.6814 31.2031C30.8313 31.4198 31.0488 31.5412 31.2737 31.5412C31.4312 31.5412 31.5961 31.4805 31.7311 31.3591C32.061 31.0644 32.1135 30.5182 31.8585 30.1454C31.0938 29.0183 29.9991 28.2293 28.7694 27.9432L25.028 27.0762L23.236 25.6977V23.6949C25.6878 22.4465 27.4573 19.7328 27.7047 16.5076C29.0093 16.1348 29.9841 14.7736 29.9841 13.1523V10.5514C29.9841 6.05167 26.775 1.01445 22.4862 1.01445H19.0896C17.0502 1.01445 15.2057 2.15888 14.0585 4.04025C14.0061 4.01424 13.9536 3.98823 13.9011 3.97089V2.1242C13.9011 1.04046 13.1363 0.156128 12.1916 0.156128H10.2871C9.34237 0.156128 8.57759 1.04046 8.57759 2.1242V3.97089C8.21019 4.11828 7.85029 4.29168 7.50539 4.49109L6.37321 3.18193C5.7059 2.41031 4.6262 2.41031 3.96638 3.18193L2.61676 4.74251C1.94945 5.51414 1.94945 6.7626 2.61676 7.52555L3.74895 8.83471C3.57649 9.23353 3.42654 9.64968 3.29907 10.0745H1.70202C0.764785 10.0745 0 10.9588 0 12.0512V14.2534C0 15.3458 0.764785 16.2301 1.70202 16.2301H3.29907C3.42654 16.655 3.57649 17.0711 3.74895 17.4699L2.61676 18.7791C1.94945 19.5507 1.94945 20.7992 2.61676 21.5621L3.96638 23.1227C4.6337 23.8944 5.71339 23.8944 6.37321 23.1227L7.50539 21.8136C7.85029 22.013 8.21019 22.1864 8.57759 22.3338V24.1805C8.57759 25.2642 9.34237 26.1485 10.2871 26.1485H12.1916C13.1363 26.1485 13.9011 25.2642 13.9011 24.1805V22.3251C14.2535 22.1864 14.5834 22.0217 14.9133 21.8396C15.1382 22.1084 15.3857 22.3511 15.6406 22.5765L16.1055 23.1141C16.4129 23.4695 16.8178 23.6603 17.2377 23.6863V25.6804L15.4457 27.0589L11.7117 27.9259C9.2674 28.4894 7.49039 30.995 7.49039 33.8734V46.9477C7.49039 47.4245 7.8278 47.8146 8.24018 47.8146C8.65257 47.8146 8.98997 47.4245 8.98997 46.9477V33.8734C8.98997 31.81 10.2571 30.024 12.0041 29.6252L15.4232 28.8362L17.3501 31.8013L17.9799 33.2492L17.2452 44.2773C17.2302 44.5287 17.3051 44.7802 17.4626 44.9536L19.712 47.5545C19.8619 47.7279 20.0494 47.806 20.2443 47.806C20.4393 47.806 20.6267 47.7193 20.7767 47.5545L23.026 44.9536C23.1835 44.7715 23.2585 44.5287 23.2435 44.2773L22.5087 33.2492L23.1385 31.8013L23.131 31.81ZM22.4112 30.0326L21.3015 28.7495L22.5836 27.2669L23.6633 28.0993L22.4112 30.0326ZM21.7439 25.7931L20.2443 27.527L18.7447 25.7931V24.2411C19.2321 24.3539 19.7345 24.4145 20.2443 24.4145C20.7542 24.4145 21.2565 24.3539 21.7439 24.2411V25.7931ZM20.2443 22.6806C18.8947 22.6806 17.65 22.1517 16.6453 21.276L15.6481 20.1229C15.6481 20.1229 15.5881 20.0796 15.5506 20.0536C14.7334 18.8658 14.246 17.3746 14.246 15.7446V14.5829C14.9058 14.2101 16.0455 13.3951 16.7878 11.9039C18.1074 12.9443 21.0991 14.7042 26.2426 14.869V15.7446C26.2426 19.5681 23.5509 22.6806 20.2443 22.6806ZM12.4615 16.3862C12.0791 16.5769 11.6667 16.6897 11.2468 16.6897C9.55231 16.6897 8.1802 15.1031 8.1802 13.1437C8.1802 11.4877 9.16992 10.1092 10.497 9.71904V13.1437C10.497 14.6349 11.3218 15.9007 12.4615 16.3862ZM19.0971 2.73976H22.4937C25.9277 2.73976 28.492 6.85797 28.492 10.5427V13.1437C28.492 13.7852 28.1846 14.3314 27.7422 14.6349V14.0106C27.7422 13.5338 27.4048 13.1437 26.9924 13.1437C19.9519 13.1437 17.0502 9.9618 17.0277 9.92712C16.8478 9.71037 16.5778 9.62367 16.3229 9.69303C16.068 9.76239 15.8655 9.97914 15.7831 10.2652C15.1682 12.4067 13.2713 13.1783 13.2563 13.187C12.9489 13.3084 12.7464 13.6378 12.7464 14.0106V14.6349C12.304 14.3314 11.9966 13.7852 11.9966 13.1437V8.8087C11.9966 7.37817 13.0088 6.20773 14.246 6.20773C14.5309 6.20773 14.7933 6.02566 14.9133 5.73088C15.7081 3.88419 17.3126 2.73976 19.0971 2.73976ZM12.9639 20.8425C12.6339 20.9466 12.409 21.2847 12.409 21.6835V24.1805C12.409 24.3105 12.3115 24.4145 12.1991 24.4145H10.2946C10.1821 24.4145 10.0847 24.3105 10.0847 24.1805V21.6835C10.0847 21.2847 9.85223 20.9466 9.52232 20.8425C8.9 20.6605 8.30766 20.3744 7.76032 19.9929C7.4679 19.7848 7.08551 19.8455 6.84558 20.1229L5.31601 21.8916C5.23353 21.987 5.10606 21.987 5.02359 21.8916L3.67397 20.331C3.62148 20.2703 3.61398 20.2096 3.61398 20.1663C3.61398 20.1229 3.62148 20.0536 3.67397 20.0016L5.20354 18.2329C5.44347 17.9555 5.49595 17.5133 5.31601 17.1752C4.9861 16.5509 4.74617 15.866 4.58121 15.1377C4.49873 14.7563 4.19882 14.4875 3.85392 14.4875H1.69452C1.58206 14.4875 1.49208 14.3748 1.49208 14.2447V12.0426C1.49208 11.9125 1.58206 11.7998 1.69452 11.7998H3.85392C4.19882 11.7998 4.49124 11.5311 4.58121 11.1496C4.73867 10.43 4.9861 9.74505 5.31601 9.11215C5.49595 8.77402 5.44347 8.33186 5.20354 8.05442L3.67397 6.28576C3.62148 6.22507 3.61398 6.16438 3.61398 6.12103C3.61398 6.07768 3.62148 6.00832 3.67397 5.9563L5.02359 4.39572C5.10606 4.30035 5.23353 4.30035 5.31601 4.39572L6.84558 6.16438C7.08551 6.44182 7.4679 6.50251 7.76032 6.29443C8.30017 5.91295 8.8925 5.63551 9.52232 5.44478C9.85223 5.34941 10.0847 5.00261 10.0847 4.60379V2.10686C10.0847 1.97681 10.1821 1.87277 10.2946 1.87277H12.1991C12.3115 1.87277 12.409 1.97681 12.409 2.10686V4.60379C12.409 4.74251 12.4465 4.86389 12.4915 4.9766C11.5243 5.57482 10.812 6.64989 10.5795 7.92437C8.37515 8.29718 6.68062 10.4907 6.68062 13.1437C6.68062 16.0567 8.72755 18.4236 11.2468 18.4236C11.8542 18.4236 12.454 18.2676 13.0088 17.9988C13.2113 18.8745 13.5337 19.7068 13.9536 20.4524C13.6387 20.6085 13.3088 20.7472 12.9714 20.8512L12.9639 20.8425ZM17.8975 27.2583L19.1796 28.7408L18.0699 30.024L16.8178 28.0906L17.8975 27.2583ZM20.2443 45.7252L18.7672 44.0172L19.487 33.1451C19.4945 32.9891 19.472 32.833 19.412 32.6943L18.9022 31.5152L20.2368 29.972L21.5714 31.5152L21.0616 32.6943C21.0016 32.833 20.9716 32.9891 20.9866 33.1451L21.7064 44.0172L20.2293 45.7252H20.2443Z" fill="black"/>
<path d="M11.9969 35.6853C11.5845 35.6853 11.2471 36.0754 11.2471 36.5523V46.9562C11.2471 47.433 11.5845 47.8232 11.9969 47.8232C12.4092 47.8232 12.7466 47.433 12.7466 46.9562V36.5523C12.7466 36.0754 12.4092 35.6853 11.9969 35.6853ZM41.891 37.8008C41.681 37.0638 41.1487 36.535 40.4963 36.4222L37.4372 35.8847L36.0501 32.5034C35.7577 31.7838 35.1578 31.3417 34.4905 31.3417C33.8232 31.3417 33.2234 31.7838 32.931 32.5034L31.5439 35.8847L28.4847 36.4222C27.8399 36.535 27.3076 37.0638 27.0901 37.8008C26.8727 38.5637 27.0301 39.3874 27.5175 39.9509L29.7444 42.5519L29.212 46.2626C29.0996 47.0689 29.377 47.8579 29.9393 48.3174C30.4717 48.7595 31.1615 48.8029 31.7388 48.4387L34.498 46.6961L37.2573 48.4387C37.5122 48.6035 37.7971 48.6815 38.0745 48.6815C38.4194 48.6815 38.7643 48.5601 39.0568 48.3174C39.6191 47.8579 39.8965 47.0689 39.784 46.2626L39.2517 42.5519L41.4786 39.9509C41.9584 39.3874 42.1234 38.5637 41.9059 37.8008H41.891ZM40.3989 38.7371L37.9096 41.6589C37.7446 41.8583 37.6621 42.1357 37.7071 42.4132L38.2995 46.5574C38.3295 46.7741 38.217 46.8868 38.1795 46.9128C38.0745 46.9995 37.9921 46.9475 37.9696 46.9302L34.8504 44.9621C34.738 44.8927 34.618 44.8581 34.4905 44.8581C34.3631 44.8581 34.2431 44.8927 34.1306 44.9621L31.0115 46.9302C31.0115 46.9302 30.899 46.9995 30.8016 46.9128C30.7641 46.8868 30.6516 46.7741 30.6816 46.5574L31.2739 42.4132C31.3114 42.1357 31.2364 41.8583 31.0715 41.6589L28.5822 38.7371C28.4547 38.5897 28.4997 38.4077 28.5147 38.3556C28.5372 38.2863 28.5897 38.1649 28.7097 38.1476L32.1662 37.5407C32.4136 37.4973 32.6236 37.3152 32.7285 37.0551L34.2881 33.2577C34.4006 32.9716 34.588 32.9716 34.7005 33.2577L36.26 37.0551C36.365 37.3152 36.5749 37.4973 36.8224 37.5407L40.2789 38.1476C40.3989 38.1649 40.4514 38.2863 40.4739 38.3556C40.4888 38.4077 40.5263 38.5984 40.4064 38.7371H40.3989Z" fill="black"/>
</svg>
