<svg width="38" height="51" viewBox="0 0 38 51" fill="none" xmlns="http://www.w3.org/2000/svg">
<path d="M17.1187 27.1189L20.4577 27.8961C20.9619 28.0144 21.4368 28.251 21.8606 28.6058C21.9921 28.7156 22.1382 28.7663 22.2843 28.7663C22.5108 28.7663 22.7373 28.648 22.8761 28.4115C23.1099 28.0313 23.0369 27.5075 22.7081 27.2287C22.109 26.7303 21.4514 26.4008 20.7354 26.2318L17.0749 25.387L15.3433 24.0522V22.1006C17.7325 20.8925 19.4641 18.2397 19.6979 15.1054C20.9765 14.7421 21.919 13.4158 21.919 11.8275V9.293C21.919 4.90833 18.7919 -0.00012207 14.6127 -0.00012207H11.3029C9.15484 -0.00012207 7.20405 1.29247 6.13002 3.41299C4.32535 3.66644 2.92253 5.44902 2.92253 7.60334V11.8275C2.92253 13.4158 3.86505 14.7421 5.14366 15.1054C5.37746 18.2397 7.10906 20.8925 9.49824 22.1006V24.0522L7.76663 25.387L4.11347 26.2318C1.7316 26.781 0 29.2225 0 32.0273V44.7674C0 45.232 0.328785 45.6122 0.730633 45.6122C1.13248 45.6122 1.46127 45.232 1.46127 44.7674V32.0273C1.46127 30.0166 2.69604 28.2763 4.39841 27.8877L7.7301 27.1189L9.60783 30.0251L10.2143 31.4275L9.49824 42.1737C9.48362 42.4187 9.56399 42.6637 9.71012 42.8411L11.902 45.3756C12.0481 45.5362 12.2308 45.6206 12.4208 45.6206C12.6107 45.6206 12.7934 45.5362 12.9395 45.3756L15.1314 42.8411C15.2775 42.6637 15.3579 42.4187 15.3433 42.1737L14.6273 31.4275L15.2337 30.0251L17.1114 27.1189H17.1187ZM6.58301 14.362V13.2299C7.22597 12.8666 8.33653 12.0725 9.05986 10.6194C10.3458 11.6332 13.2537 13.3482 18.2731 13.5087V14.362C18.2731 17.3104 16.6292 19.828 14.335 20.7489C13.7359 20.9854 13.093 21.1206 12.4281 21.1206C11.7632 21.1206 11.1202 20.9854 10.5211 20.7489C8.22693 19.828 6.58301 17.3104 6.58301 14.362ZM10.3165 28.2763L9.08908 26.4008L10.1412 25.5897L11.3906 27.0344L10.3165 28.2763ZM12.4281 25.8347L11.5513 24.8294L10.9668 24.1535V22.6413C11.4344 22.7511 11.9239 22.8103 12.4281 22.8103C12.9322 22.8103 13.4217 22.7511 13.8893 22.6413V24.1451L13.3048 24.8294L12.4281 25.8347ZM14.5396 28.2763L13.4656 27.0428L14.715 25.5897L15.7671 26.4008L14.5396 28.2763Z" fill="black"/>
<path d="M4.39079 33.7935C3.98894 33.7935 3.66016 34.1736 3.66016 34.6383V44.7762C3.66016 45.2409 3.98894 45.6211 4.39079 45.6211C4.79264 45.6211 5.12142 45.2409 5.12142 44.7762V34.6383C5.12142 34.1736 4.79264 33.7935 4.39079 33.7935ZM34.3468 32.1038H32.1549V31.259C32.1549 29.865 31.1685 28.7245 29.963 28.7245H25.5792C24.3736 28.7245 23.3873 29.865 23.3873 31.259V32.1038H21.1954C19.1788 32.1038 17.5422 33.9962 17.5422 36.3279V46.4659C17.5422 48.7976 19.1788 50.69 21.1954 50.69H34.3468C36.3633 50.69 37.9999 48.7976 37.9999 46.4659V36.3279C37.9999 33.9962 36.3633 32.1038 34.3468 32.1038ZM24.8485 31.259C24.8485 30.7943 25.1773 30.4141 25.5792 30.4141H29.963C30.3648 30.4141 30.6936 30.7943 30.6936 31.259V32.1038H24.8485V31.259ZM36.5387 46.4659C36.5387 47.8599 35.5523 49.0004 34.3468 49.0004H21.1954C19.9898 49.0004 19.0035 47.8599 19.0035 46.4659V41.3969C19.6099 41.9292 20.3697 42.2417 21.1954 42.2417H27.0404V43.0866C27.0404 43.5512 27.3692 43.9314 27.7711 43.9314C28.1729 43.9314 28.5017 43.5512 28.5017 43.0866V42.2417H34.3468C35.1724 42.2417 35.9322 41.9292 36.5387 41.3969V46.4659Z" fill="black"/>
</svg>
