<svg width="34" height="35" viewBox="0 0 34 35" fill="none" xmlns="http://www.w3.org/2000/svg">
<path d="M31.4106 6.43254L10.0113 0.650553C8.32989 0.196254 6.58252 1.20022 6.12823 2.8816L0.346238 24.2809C-0.108061 25.9623 0.895909 27.7096 2.57728 28.1639L23.9766 33.9459C25.6579 34.4002 27.4053 33.3962 27.8596 31.7149L33.6416 10.3156C34.0959 8.63421 33.0919 6.88684 31.4106 6.43254ZM10.3434 23.7018L7.28632 22.8758L9.35132 15.2332L12.4084 16.0592L10.3434 23.7018ZM16.4574 25.3538L13.4004 24.5278L14.6394 19.9423L17.6964 20.7683L16.4574 25.3538ZM18.5224 17.7112L15.4654 16.8852L16.2914 13.8282L19.3484 14.6542L18.5224 17.7112ZM22.5715 27.0058L19.5145 26.1798L23.6445 10.8946L26.7015 11.7206L22.5715 27.0058Z" fill="white"/>
</svg>
