<svg width="1000" height="1000" viewBox="0 0 1000 1000" fill="none" xmlns="http://www.w3.org/2000/svg">
<rect x="-0.000488281" width="1000" height="1000" fill="black"/>
<path d="M224.852 446.628C218.255 446.628 212.454 445.594 207.447 443.528C202.44 441.462 198.546 438.8 195.765 435.541L208.758 424.336C211.301 426.64 214.162 428.349 217.341 429.462C220.6 430.574 223.461 431.131 225.924 431.131C226.799 431.131 227.593 431.051 228.309 430.892C229.024 430.733 229.58 430.495 229.977 430.177C230.454 429.779 230.812 429.382 231.05 428.985C231.368 428.508 231.527 427.991 231.527 427.435C231.527 426.084 230.852 425.051 229.501 424.336C228.785 424.018 227.593 423.62 225.924 423.144C224.335 422.587 222.189 421.991 219.487 421.355C216.149 420.481 213.169 419.448 210.546 418.256C207.924 416.984 205.699 415.514 203.871 413.845C202.122 412.176 200.732 410.269 199.698 408.123C198.745 405.898 198.268 403.474 198.268 400.852C198.268 397.673 198.983 394.851 200.414 392.388C201.844 389.924 203.831 387.818 206.374 386.07C208.917 384.242 211.778 382.891 214.957 382.017C218.136 381.063 221.394 380.586 224.732 380.586C228.468 380.586 231.964 380.983 235.223 381.778C238.56 382.493 241.66 383.566 244.521 384.997C247.461 386.348 250.084 388.017 252.389 390.004L240.945 402.64C239.594 401.448 238.004 400.335 236.176 399.302C234.428 398.269 232.6 397.434 230.693 396.798C228.785 396.083 226.997 395.726 225.328 395.726C224.295 395.726 223.421 395.805 222.706 395.964C221.991 396.123 221.394 396.361 220.918 396.679C220.441 396.997 220.083 397.394 219.845 397.871C219.606 398.348 219.487 398.865 219.487 399.421C219.487 400.136 219.686 400.812 220.083 401.448C220.481 402.083 221.116 402.6 221.991 402.997C222.706 403.395 223.898 403.911 225.567 404.547C227.315 405.103 229.819 405.819 233.077 406.693C236.733 407.726 239.912 408.918 242.614 410.269C245.316 411.62 247.501 413.17 249.17 414.918C250.362 416.269 251.276 417.779 251.912 419.448C252.548 421.038 252.866 422.826 252.866 424.812C252.866 429.024 251.634 432.799 249.17 436.137C246.786 439.396 243.488 441.978 239.276 443.886C235.064 445.714 230.256 446.628 224.852 446.628ZM286 446.508C280.755 446.508 276.026 445.118 271.814 442.336C267.682 439.475 264.383 435.581 261.92 430.654C259.536 425.647 258.344 419.965 258.344 413.607C258.344 407.09 259.536 401.368 261.92 396.441C264.304 391.514 267.602 387.659 271.814 384.878C276.026 382.017 280.874 380.586 286.358 380.586C289.298 380.586 292 380.983 294.464 381.778C296.927 382.573 299.073 383.725 300.901 385.235C302.729 386.745 304.318 388.454 305.669 390.361C307.02 392.269 308.133 394.335 309.007 396.56L304.477 396.322V381.897H326.292V445.436H304V429.938L308.888 430.177C308.173 432.482 307.1 434.627 305.669 436.614C304.318 438.601 302.649 440.349 300.663 441.859C298.676 443.29 296.451 444.442 293.987 445.316C291.603 446.111 288.94 446.508 286 446.508ZM292.318 428.27C294.861 428.27 297.047 427.713 298.874 426.601C300.702 425.409 302.093 423.7 303.047 421.475C304.08 419.249 304.596 416.627 304.596 413.607C304.596 410.507 304.08 407.845 303.047 405.62C302.093 403.395 300.702 401.726 298.874 400.613C297.047 399.421 294.861 398.825 292.318 398.825C289.775 398.825 287.589 399.421 285.762 400.613C284.013 401.726 282.662 403.395 281.708 405.62C280.755 407.845 280.278 410.507 280.278 413.607C280.278 416.627 280.755 419.249 281.708 421.475C282.662 423.7 284.013 425.409 285.762 426.601C287.589 427.713 289.775 428.27 292.318 428.27ZM342.97 471.661V381.897H363.712L364.785 395.964L360.493 394.891C360.97 392.189 362.281 389.765 364.427 387.619C366.652 385.474 369.394 383.765 372.652 382.493C375.911 381.222 379.447 380.586 383.262 380.586C388.587 380.586 393.315 382.017 397.448 384.878C401.58 387.659 404.839 391.514 407.223 396.441C409.607 401.368 410.799 407.09 410.799 413.607C410.799 419.965 409.607 425.647 407.223 430.654C404.839 435.581 401.541 439.475 397.329 442.336C393.117 445.118 388.309 446.508 382.904 446.508C379.328 446.508 375.911 445.873 372.652 444.601C369.474 443.25 366.772 441.462 364.546 439.237C362.401 436.932 361.01 434.349 360.374 431.488L365.381 429.819V471.661H342.97ZM376.944 428.27C379.487 428.27 381.673 427.673 383.5 426.481C385.328 425.289 386.719 423.62 387.673 421.475C388.626 419.249 389.103 416.627 389.103 413.607C389.103 410.507 388.626 407.885 387.673 405.739C386.719 403.514 385.328 401.805 383.5 400.613C381.673 399.421 379.487 398.825 376.944 398.825C374.401 398.825 372.215 399.421 370.388 400.613C368.56 401.726 367.169 403.395 366.215 405.62C365.262 407.845 364.785 410.507 364.785 413.607C364.785 416.627 365.262 419.249 366.215 421.475C367.169 423.62 368.56 425.289 370.388 426.481C372.215 427.673 374.401 428.27 376.944 428.27ZM493.862 446.628C486.63 446.628 480.392 445.237 475.147 442.455C469.902 439.594 465.848 435.7 462.987 430.773C460.126 425.766 458.696 420.084 458.696 413.726C458.696 408.958 459.491 404.547 461.08 400.494C462.67 396.441 464.895 392.944 467.756 390.004C470.617 386.984 473.994 384.679 477.888 383.089C481.862 381.421 486.193 380.586 490.882 380.586C495.492 380.586 499.664 381.381 503.399 382.97C507.214 384.56 510.472 386.825 513.174 389.765C515.956 392.706 518.062 396.163 519.492 400.136C521.002 404.11 521.678 408.481 521.519 413.249L521.4 418.256H471.332L468.59 407.17H503.638L501.492 409.554V407.289C501.492 405.54 501.015 404.03 500.061 402.759C499.187 401.408 497.995 400.375 496.485 399.659C494.975 398.944 493.266 398.587 491.359 398.587C488.657 398.587 486.392 399.143 484.564 400.255C482.816 401.289 481.465 402.799 480.511 404.785C479.557 406.772 479.081 409.156 479.081 411.938C479.081 415.117 479.716 417.859 480.988 420.163C482.339 422.468 484.286 424.256 486.829 425.528C489.452 426.799 492.631 427.435 496.366 427.435C498.829 427.435 500.975 427.117 502.803 426.481C504.71 425.846 506.737 424.733 508.883 423.144L519.135 437.568C516.353 439.793 513.532 441.581 510.671 442.932C507.889 444.204 505.108 445.118 502.326 445.674C499.545 446.31 496.723 446.628 493.862 446.628ZM533.075 445.436V381.897H553.817L554.771 394.772L550.241 396.202C551.035 393.182 552.585 390.52 554.89 388.215C557.194 385.831 559.936 383.964 563.115 382.613C566.294 381.262 569.632 380.586 573.129 380.586C577.897 380.586 581.91 381.579 585.169 383.566C588.507 385.474 591.01 388.374 592.679 392.269C594.427 396.083 595.301 400.772 595.301 406.335V445.436H573.129V408.123C573.129 406.057 572.811 404.348 572.175 402.997C571.539 401.567 570.586 400.494 569.314 399.779C568.042 399.063 566.532 398.746 564.784 398.825C563.433 398.825 562.162 399.024 560.969 399.421C559.857 399.818 558.863 400.454 557.989 401.328C557.115 402.123 556.439 403.037 555.963 404.07C555.565 405.103 555.367 406.256 555.367 407.527V445.436H544.28C541.578 445.436 539.273 445.436 537.366 445.436C535.538 445.436 534.108 445.436 533.075 445.436ZM639.328 446.628C633.049 446.628 627.407 445.197 622.4 442.336C617.473 439.475 613.579 435.581 610.718 430.654C607.857 425.647 606.426 419.965 606.426 413.607C606.426 407.249 607.857 401.607 610.718 396.679C613.579 391.672 617.473 387.739 622.4 384.878C627.407 382.017 633.049 380.586 639.328 380.586C645.05 380.586 650.295 381.5 655.063 383.328C659.911 385.156 663.765 387.778 666.626 391.196L654.586 405.501C653.712 404.388 652.6 403.395 651.249 402.52C649.897 401.567 648.388 400.852 646.719 400.375C645.129 399.818 643.341 399.54 641.354 399.54C638.732 399.54 636.427 400.136 634.44 401.328C632.453 402.52 630.904 404.189 629.791 406.335C628.758 408.401 628.241 410.786 628.241 413.488C628.241 416.19 628.758 418.574 629.791 420.64C630.824 422.706 632.334 424.375 634.321 425.647C636.387 426.918 638.732 427.554 641.354 427.554C643.341 427.554 645.129 427.316 646.719 426.839C648.388 426.362 649.858 425.687 651.129 424.812C652.48 423.938 653.633 422.905 654.586 421.713L666.626 436.137C663.686 439.475 659.792 442.058 654.944 443.886C650.176 445.714 644.97 446.628 639.328 446.628ZM707.134 446.628C699.902 446.628 693.664 445.237 688.418 442.455C683.173 439.594 679.12 435.7 676.259 430.773C673.398 425.766 671.968 420.084 671.968 413.726C671.968 408.958 672.762 404.547 674.352 400.494C675.941 396.441 678.166 392.944 681.027 390.004C683.888 386.984 687.266 384.679 691.16 383.089C695.134 381.421 699.465 380.586 704.154 380.586C708.763 380.586 712.936 381.381 716.671 382.97C720.485 384.56 723.744 386.825 726.446 389.765C729.227 392.706 731.333 396.163 732.764 400.136C734.274 404.11 734.949 408.481 734.79 413.249L734.671 418.256H684.604L681.862 407.17H716.909L714.763 409.554V407.289C714.763 405.54 714.287 404.03 713.333 402.759C712.459 401.408 711.267 400.375 709.757 399.659C708.247 398.944 706.538 398.587 704.631 398.587C701.929 398.587 699.664 399.143 697.836 400.255C696.087 401.289 694.736 402.799 693.783 404.785C692.829 406.772 692.352 409.156 692.352 411.938C692.352 415.117 692.988 417.859 694.26 420.163C695.611 422.468 697.558 424.256 700.101 425.528C702.723 426.799 705.902 427.435 709.637 427.435C712.101 427.435 714.247 427.117 716.075 426.481C717.982 425.846 720.009 424.733 722.154 423.144L732.406 437.568C729.625 439.793 726.803 441.581 723.942 442.932C721.161 444.204 718.379 445.118 715.598 445.674C712.816 446.31 709.995 446.628 707.134 446.628ZM366.951 594.436V530.897H387.693L388.528 541.388L385.786 540.911C386.899 538.845 388.21 537.096 389.72 535.666C391.23 534.235 392.899 533.083 394.727 532.209C396.554 531.255 398.422 530.579 400.329 530.182C402.237 529.785 404.065 529.586 405.813 529.586C408.753 529.586 411.455 530.023 413.919 530.897C416.462 531.692 418.687 533.083 420.595 535.07C422.582 537.056 424.211 539.838 425.482 543.414L422.025 543.176L422.979 541.507C424.171 539.441 425.562 537.692 427.151 536.262C428.82 534.831 430.648 533.599 432.635 532.566C434.622 531.533 436.648 530.778 438.715 530.301C440.86 529.824 442.887 529.586 444.794 529.586C449.96 529.586 454.291 530.579 457.788 532.566C461.285 534.553 463.907 537.494 465.656 541.388C467.404 545.202 468.278 549.891 468.278 555.454V594.436H446.105V557.242C446.105 555.176 445.788 553.468 445.152 552.116C444.516 550.686 443.602 549.613 442.41 548.898C441.218 548.183 439.748 547.825 437.999 547.825C436.648 547.825 435.377 548.063 434.185 548.54C433.072 548.938 432.118 549.573 431.324 550.448C430.529 551.242 429.893 552.156 429.416 553.189C428.939 554.143 428.701 555.295 428.701 556.646V594.436H406.528V557.123C406.528 555.136 406.21 553.468 405.575 552.116C404.939 550.765 404.025 549.732 402.833 549.017C401.641 548.222 400.17 547.825 398.422 547.825C397.071 547.825 395.799 548.063 394.607 548.54C393.495 548.938 392.541 549.534 391.746 550.328C390.952 551.123 390.316 552.037 389.839 553.07C389.362 554.103 389.124 555.256 389.124 556.527V594.436H366.951ZM484.663 594.436V530.897H506.836V594.436H484.663ZM495.749 518.857C491.696 518.857 488.557 517.943 486.332 516.116C484.107 514.208 482.994 511.546 482.994 508.129C482.994 504.95 484.107 502.367 486.332 500.38C488.636 498.314 491.776 497.281 495.749 497.281C499.723 497.281 502.822 498.234 505.048 500.142C507.352 501.969 508.505 504.632 508.505 508.129C508.505 511.307 507.352 513.89 505.048 515.877C502.743 517.864 499.643 518.857 495.749 518.857ZM524.227 594.436V530.897H544.969L545.923 543.772L541.393 545.202C542.188 542.182 543.738 539.52 546.042 537.215C548.347 534.831 551.089 532.964 554.268 531.613C557.447 530.262 560.784 529.586 564.281 529.586C569.05 529.586 573.063 530.579 576.321 532.566C579.659 534.474 582.162 537.374 583.831 541.269C585.58 545.083 586.454 549.772 586.454 555.335V594.436H564.281V557.123C564.281 555.057 563.963 553.348 563.328 551.997C562.692 550.567 561.738 549.494 560.467 548.779C559.195 548.063 557.685 547.746 555.937 547.825C554.586 547.825 553.314 548.024 552.122 548.421C551.009 548.818 550.016 549.454 549.142 550.328C548.268 551.123 547.592 552.037 547.115 553.07C546.718 554.103 546.519 555.256 546.519 556.527V594.436H535.433C532.731 594.436 530.426 594.436 528.519 594.436C526.691 594.436 525.26 594.436 524.227 594.436ZM625.235 595.747C619.91 595.747 615.142 594.356 610.93 591.575C606.797 588.714 603.539 584.819 601.155 579.892C598.771 574.885 597.579 569.163 597.579 562.726C597.579 556.289 598.771 550.607 601.155 545.679C603.618 540.672 606.956 536.739 611.168 533.878C615.38 531.017 620.188 529.586 625.593 529.586C628.374 529.586 631.036 529.983 633.58 530.778C636.123 531.573 638.388 532.685 640.374 534.116C642.441 535.547 644.149 537.215 645.5 539.123C646.931 541.03 647.845 543.057 648.242 545.202L643.116 546.633V506.221H665.408V594.436H645.262L643.712 580.25L648.123 581.084C647.805 583.15 646.971 585.058 645.62 586.806C644.269 588.555 642.56 590.104 640.494 591.455C638.507 592.806 636.162 593.84 633.46 594.555C630.838 595.349 628.096 595.747 625.235 595.747ZM631.553 577.627C634.096 577.627 636.282 577.031 638.11 575.839C639.937 574.567 641.328 572.859 642.282 570.713C643.235 568.488 643.712 565.825 643.712 562.726C643.712 559.627 643.235 556.964 642.282 554.739C641.328 552.434 639.937 550.726 638.11 549.613C636.282 548.421 634.096 547.825 631.553 547.825C629.01 547.825 626.824 548.421 624.997 549.613C623.169 550.726 621.778 552.434 620.824 554.739C619.871 556.964 619.394 559.627 619.394 562.726C619.394 565.825 619.871 568.488 620.824 570.713C621.778 572.859 623.169 574.567 624.997 575.839C626.824 577.031 629.01 577.627 631.553 577.627ZM702.85 595.628C696.254 595.628 690.452 594.594 685.446 592.528C680.439 590.462 676.545 587.8 673.763 584.541L686.757 573.336C689.3 575.64 692.161 577.349 695.34 578.462C698.598 579.574 701.459 580.131 703.923 580.131C704.797 580.131 705.592 580.051 706.307 579.892C707.022 579.733 707.579 579.495 707.976 579.177C708.453 578.779 708.81 578.382 709.049 577.985C709.367 577.508 709.526 576.991 709.526 576.435C709.526 575.084 708.85 574.051 707.499 573.336C706.784 573.018 705.592 572.62 703.923 572.144C702.333 571.587 700.188 570.991 697.486 570.355C694.148 569.481 691.168 568.448 688.545 567.256C685.922 565.984 683.697 564.514 681.869 562.845C680.121 561.176 678.73 559.269 677.697 557.123C676.743 554.898 676.266 552.474 676.266 549.852C676.266 546.673 676.982 543.851 678.412 541.388C679.843 538.924 681.83 536.818 684.373 535.07C686.916 533.242 689.777 531.891 692.956 531.017C696.135 530.063 699.393 529.586 702.731 529.586C706.466 529.586 709.963 529.983 713.221 530.778C716.559 531.493 719.658 532.566 722.519 533.997C725.46 535.348 728.082 537.017 730.387 539.004L718.943 551.64C717.592 550.448 716.003 549.335 714.175 548.302C712.426 547.269 710.599 546.434 708.691 545.798C706.784 545.083 704.996 544.726 703.327 544.726C702.294 544.726 701.42 544.805 700.704 544.964C699.989 545.123 699.393 545.361 698.916 545.679C698.439 545.997 698.082 546.394 697.843 546.871C697.605 547.348 697.486 547.865 697.486 548.421C697.486 549.136 697.684 549.812 698.082 550.448C698.479 551.083 699.115 551.6 699.989 551.997C700.704 552.395 701.896 552.911 703.565 553.547C705.314 554.103 707.817 554.819 711.075 555.693C714.731 556.726 717.91 557.918 720.612 559.269C723.314 560.62 725.5 562.17 727.169 563.918C728.361 565.269 729.275 566.779 729.91 568.448C730.546 570.038 730.864 571.826 730.864 573.812C730.864 578.024 729.632 581.799 727.169 585.137C724.784 588.396 721.486 590.978 717.274 592.886C713.062 594.714 708.254 595.628 702.85 595.628Z" fill="white"/>
<path d="M248.79 594.436V506.221H270.486V543.772L265.956 545.202C266.751 542.182 268.301 539.52 270.605 537.215C272.91 534.831 275.652 532.964 278.831 531.613C282.01 530.262 285.347 529.586 288.844 529.586C293.613 529.586 297.626 530.579 300.884 532.566C304.222 534.474 306.725 537.374 308.394 541.269C310.143 545.083 311.017 549.772 311.017 555.335V594.436H288.844V557.123C288.844 555.057 288.526 553.348 287.891 551.997C287.255 550.567 286.301 549.494 285.029 548.779C283.758 548.063 282.248 547.746 280.5 547.825C279.149 547.825 277.877 548.024 276.685 548.421C275.572 548.818 274.579 549.454 273.705 550.328C272.83 551.123 272.155 552.037 271.678 553.07C271.281 554.103 271.082 555.256 271.082 556.527V594.436H259.996C257.294 594.436 254.989 594.436 253.082 594.436C251.254 594.436 249.823 594.436 248.79 594.436Z" fill="#2E9084"/>
<mask id="path-3-outside-1_1_3429" maskUnits="userSpaceOnUse" x="294.043" y="528.031" width="48" height="70" fill="black">
<rect fill="white" x="294.043" y="528.031" width="48" height="70"/>
<path d="M296.507 595.031V531.969H312.838L313.434 552.235L310.573 548.062C311.527 544.804 313.077 541.864 315.223 539.241C317.368 536.539 319.872 534.433 322.733 532.923C325.673 531.413 328.733 530.658 331.912 530.658C333.263 530.658 334.574 530.777 335.846 531.016C337.117 531.254 338.19 531.532 339.064 531.85L334.534 550.447C333.581 549.97 332.428 549.572 331.077 549.255C329.726 548.857 328.335 548.658 326.905 548.658C324.998 548.658 323.21 549.016 321.541 549.731C319.951 550.367 318.56 551.321 317.368 552.592C316.176 553.784 315.223 555.215 314.507 556.884C313.871 558.553 313.554 560.381 313.554 562.367V595.031H296.507Z"/>
</mask>
<path d="M296.507 595.031V531.969H312.838L313.434 552.235L310.573 548.062C311.527 544.804 313.077 541.864 315.223 539.241C317.368 536.539 319.872 534.433 322.733 532.923C325.673 531.413 328.733 530.658 331.912 530.658C333.263 530.658 334.574 530.777 335.846 531.016C337.117 531.254 338.19 531.532 339.064 531.85L334.534 550.447C333.581 549.97 332.428 549.572 331.077 549.255C329.726 548.857 328.335 548.658 326.905 548.658C324.998 548.658 323.21 549.016 321.541 549.731C319.951 550.367 318.56 551.321 317.368 552.592C316.176 553.784 315.223 555.215 314.507 556.884C313.871 558.553 313.554 560.381 313.554 562.367V595.031H296.507Z" fill="#2E9084"/>
<path d="M296.507 595.031H294.169C294.169 596.322 295.216 597.368 296.507 597.368V595.031ZM296.507 531.969V529.632C295.216 529.632 294.169 530.678 294.169 531.969H296.507ZM312.838 531.969L315.175 531.901C315.138 530.637 314.103 529.632 312.838 529.632V531.969ZM313.434 552.235L311.507 553.557C312.093 554.412 313.173 554.779 314.159 554.457C315.145 554.135 315.801 553.203 315.771 552.166L313.434 552.235ZM310.573 548.062L308.33 547.406C308.133 548.079 308.249 548.806 308.646 549.384L310.573 548.062ZM315.223 539.241L317.032 540.721C317.039 540.712 317.046 540.704 317.053 540.695L315.223 539.241ZM322.733 532.923L321.665 530.844C321.657 530.848 321.649 530.852 321.642 530.856L322.733 532.923ZM335.846 531.016L335.415 533.313L335.415 533.313L335.846 531.016ZM339.064 531.85L341.335 532.403C341.617 531.245 340.983 530.061 339.863 529.653L339.064 531.85ZM334.534 550.447L333.489 552.537C334.125 552.855 334.872 552.866 335.517 552.567C336.163 552.268 336.637 551.691 336.805 551L334.534 550.447ZM331.077 549.255L330.418 551.497C330.459 551.509 330.5 551.52 330.542 551.53L331.077 549.255ZM321.541 549.731L322.409 551.902C322.426 551.895 322.444 551.887 322.461 551.88L321.541 549.731ZM317.368 552.592L319.021 554.245C319.039 554.227 319.056 554.209 319.074 554.191L317.368 552.592ZM314.507 556.884L312.359 555.963C312.346 555.992 312.334 556.022 312.323 556.052L314.507 556.884ZM313.554 595.031V597.368C314.845 597.368 315.891 596.322 315.891 595.031H313.554ZM298.844 595.031V531.969H294.169V595.031H298.844ZM296.507 534.307H312.838V529.632H296.507V534.307ZM310.502 532.038L311.098 552.303L315.771 552.166L315.175 531.901L310.502 532.038ZM315.362 550.913L312.501 546.741L308.646 549.384L311.507 553.557L315.362 550.913ZM312.817 548.719C313.682 545.761 315.085 543.101 317.032 540.721L313.413 537.761C311.069 540.627 309.372 543.847 308.33 547.406L312.817 548.719ZM317.053 540.695C319.011 538.229 321.268 536.339 323.824 534.99L321.642 530.856C318.476 532.527 315.726 534.849 313.392 537.787L317.053 540.695ZM323.8 535.002C326.424 533.655 329.119 532.995 331.912 532.995V528.321C328.346 528.321 324.922 529.171 321.665 530.844L323.8 535.002ZM331.912 532.995C333.125 532.995 334.291 533.102 335.415 533.313L336.276 528.718C334.857 528.452 333.401 528.321 331.912 528.321V532.995ZM335.415 533.313C336.606 533.536 337.547 533.786 338.265 534.047L339.863 529.653C338.833 529.279 337.629 528.972 336.276 528.718L335.415 533.313ZM336.793 531.297L332.263 549.893L336.805 551L341.335 532.403L336.793 531.297ZM335.58 548.356C334.424 547.778 333.09 547.327 331.613 546.979L330.542 551.53C331.766 551.818 332.738 552.162 333.489 552.537L335.58 548.356ZM331.737 547.012C330.168 546.551 328.555 546.321 326.905 546.321V550.996C328.116 550.996 329.284 551.164 330.418 551.497L331.737 547.012ZM326.905 546.321C324.697 546.321 322.594 546.737 320.62 547.583L322.461 551.88C323.825 551.296 325.298 550.996 326.905 550.996V546.321ZM320.672 547.561C318.76 548.326 317.085 549.477 315.663 550.994L319.074 554.191C320.036 553.164 321.143 552.408 322.409 551.902L320.672 547.561ZM315.715 550.94C314.297 552.358 313.182 554.042 312.359 555.963L316.656 557.805C317.263 556.388 318.055 555.211 319.021 554.245L315.715 550.94ZM312.323 556.052C311.575 558.015 311.216 560.128 311.216 562.367H315.891C315.891 560.633 316.168 559.091 316.692 557.716L312.323 556.052ZM311.216 562.367V595.031H315.891V562.367H311.216ZM313.554 592.693H296.507V597.368H313.554V592.693Z" fill="black" mask="url(#path-3-outside-1_1_3429)"/>
<circle cx="496.074" cy="508.755" r="14.0245" fill="#2E9084"/>
<circle cx="302.067" cy="511.092" r="9.34969" fill="white"/>
<circle cx="435.301" cy="359.16" r="14.0245" fill="black"/>
<path d="M431.778 379.754L436.03 379.83C439.723 379.895 442.793 382.815 443.048 386.506L449.284 476.822C449.423 478.836 448.69 480.795 447.27 482.198L439.027 490.344C436.297 493.042 431.849 492.963 429.1 490.169L420.814 481.744C419.376 480.283 418.629 478.284 418.764 476.263L424.807 386.151C425.053 382.483 428.097 379.689 431.778 379.754Z" fill="white"/>
<path d="M420.7 360.887L446.593 361.275C448.383 361.302 449.522 363.25 448.649 364.795L443.218 374.413C442.808 375.139 442.034 375.58 441.193 375.568L426.533 375.348C425.707 375.336 424.939 374.888 424.514 374.17L418.712 364.384C417.78 362.812 418.89 360.86 420.7 360.887Z" fill="white"/>
<circle cx="434.132" cy="348.641" r="7.01227" stroke="#2E9084" stroke-width="7.01227"/>
<path d="M448.156 366.172C448.156 367.862 447.129 369.821 444.583 371.518C442.062 373.199 438.377 374.353 434.132 374.353C429.887 374.353 426.202 373.199 423.681 371.518C421.135 369.821 420.107 367.862 420.107 366.172C420.107 364.481 421.135 362.522 423.681 360.825C426.202 359.144 429.887 357.991 434.132 357.991C438.377 357.991 442.062 359.144 444.583 360.825C447.129 362.522 448.156 364.481 448.156 366.172Z" stroke="#2E9084" stroke-width="7.01227"/>
</svg>
