<svg width="37" height="37" viewBox="0 0 37 37" fill="none" xmlns="http://www.w3.org/2000/svg">
<mask id="path-1-outside-1_489_762" maskUnits="userSpaceOnUse" x="0" y="0" width="37" height="37" fill="black">
<rect fill="white" width="37" height="37"/>
<path d="M5.49843 14.0199C5.42529 14.2027 5.279 14.349 5.05956 14.3856L2.02403 14.9707C1.62173 15.0439 1.29258 15.373 1.21944 15.7753C1.07315 16.6897 1 17.6405 1 18.5549C1 19.4692 1.07315 20.4201 1.21944 21.3344C1.29258 21.7367 1.62173 22.0658 2.02403 22.139L5.05956 22.7241C5.279 22.7607 5.46186 22.9436 5.49843 23.1264C5.60815 23.5653 5.79101 24.0042 6.08359 24.5162C6.19331 24.6991 6.15674 24.9185 6.04702 25.1014L4.29154 27.6614C4.0721 28.0272 4.0721 28.466 4.29154 28.7952C5.38871 30.3312 6.70533 31.6479 8.24138 32.745C8.57053 33.001 9.04598 33.001 9.37513 32.745L11.9352 30.9896C12.1181 30.8798 12.3009 30.8798 12.4838 30.953C12.9592 31.1724 13.4713 31.3918 13.9467 31.5747C14.1296 31.6479 14.2759 31.7941 14.3124 32.0136L14.8976 35.0491C14.9707 35.4514 15.2999 35.7806 15.7022 35.8537C16.6165 36 17.5674 36.0731 18.4817 36.0731C19.396 36.0731 20.3469 36 21.2612 35.8537C21.6635 35.7806 21.9927 35.4514 22.0658 35.0491L22.651 32.0136C22.6876 31.7941 22.8339 31.6479 23.0167 31.5747C23.5287 31.3918 24.0042 31.209 24.4796 30.953C24.6625 30.8798 24.8453 30.8798 25.0282 30.9896L27.5883 32.745C27.954 32.9645 28.3929 32.9645 28.722 32.745C30.2581 31.6479 31.5747 30.3312 32.6719 28.7952C32.9279 28.466 32.9279 27.9906 32.6719 27.6614L30.9164 25.1014C30.8067 24.9551 30.8067 24.7356 30.8798 24.5528C31.0993 24.0773 31.3187 23.5653 31.5016 23.0533C31.5747 22.8704 31.721 22.7241 31.9404 22.6876L34.976 22.1024C35.3783 22.0293 35.7074 21.7001 35.7806 21.2978C35.9269 20.3835 36 19.4326 36 18.5183C36 17.604 35.9269 16.6531 35.7806 15.7388C35.7074 15.3365 35.3783 15.0073 34.976 14.9342L31.9404 14.349C31.7576 14.3124 31.5747 14.1661 31.5016 13.9833C31.3187 13.4713 31.1358 12.9958 30.8798 12.5204C30.8067 12.3375 30.8067 12.1181 30.9164 11.9718L32.6719 9.4117C32.8913 9.08255 32.8913 8.60711 32.6719 8.27795C31.5747 6.7419 30.2581 5.42529 28.722 4.32811C28.3929 4.0721 27.9174 4.0721 27.5883 4.32811L25.0282 6.08359C24.8819 6.19331 24.6625 6.22989 24.4796 6.12017C24.0042 5.90073 23.4922 5.6813 23.0167 5.49843C22.8339 5.42529 22.6876 5.279 22.651 5.05956L22.0658 2.02403C21.9927 1.62173 21.6635 1.29258 21.2612 1.21944C19.4326 0.926855 17.5308 0.926855 15.7022 1.21944C15.2999 1.29258 14.9707 1.62173 14.8976 2.02403L14.3124 5.05956C14.2759 5.279 14.1296 5.42529 13.9467 5.49843C13.4347 5.6813 12.9592 5.86416 12.4838 6.12017C12.3009 6.19331 12.1181 6.19331 11.9352 6.08359L9.37513 4.32811C9.0094 4.10867 8.57053 4.10867 8.24138 4.32811C6.70533 5.42529 5.38871 6.7419 4.29154 8.27795C4.03553 8.60711 4.03553 9.08255 4.29154 9.4117L6.04702 11.9718C6.15674 12.1181 6.19331 12.3375 6.08359 12.5204C5.86416 13.0324 5.6813 13.5078 5.49843 14.0199ZM6.66876 11.5695L4.91327 9.0094C4.84013 8.89969 4.84013 8.78997 4.91327 8.71682C5.97388 7.25392 7.25392 5.97388 8.68025 4.94984C8.7534 4.8767 8.89969 4.8767 8.97283 4.94984L11.5329 6.70533C11.8986 6.96134 12.4107 6.99791 12.813 6.81505C13.2518 6.59561 13.7273 6.41275 14.2027 6.22988C14.6416 6.08359 14.9707 5.71787 15.0439 5.24242L15.629 2.2069C15.6656 2.09718 15.7388 2.02403 15.8485 1.98746C17.604 1.69488 19.4326 1.69488 21.1881 1.98746C21.2978 1.98746 21.371 2.09718 21.4075 2.2069L21.9927 5.24242C22.0658 5.71787 22.395 6.08359 22.8339 6.22988C23.3093 6.37618 23.7847 6.59561 24.2236 6.81505C24.6259 6.99791 25.1379 6.96134 25.5037 6.70533L28.0637 4.94984C28.1735 4.8767 28.2832 4.8767 28.3563 4.94984C29.8192 6.01045 31.0993 7.29049 32.1233 8.71682C32.1964 8.78997 32.1964 8.93626 32.1233 9.0094L30.3678 11.5695C30.1118 11.9352 30.0752 12.4472 30.2581 12.8495C30.4775 13.325 30.697 13.8004 30.8433 14.2393C30.9895 14.6782 31.3553 15.0073 31.8307 15.0805L34.8662 15.6656C34.976 15.7022 35.0491 15.7753 35.0857 15.8851C35.232 16.7628 35.3051 17.6771 35.3051 18.5549C35.3051 19.4326 35.232 20.3469 35.0857 21.2247C35.0857 21.3344 34.976 21.4075 34.8662 21.4441L31.8307 22.0293C31.3553 22.1024 30.9895 22.4316 30.8433 22.8704C30.697 23.3459 30.4775 23.8213 30.2581 24.2602C30.0387 24.6625 30.0752 25.1745 30.3678 25.5402L32.1233 28.1003C32.1964 28.21 32.1964 28.3197 32.1233 28.3929C31.0627 29.8558 29.7827 31.1358 28.3563 32.1599C28.2832 32.233 28.1369 32.233 28.0637 32.1599L25.5037 30.4044C25.1379 30.1484 24.6259 30.1118 24.2236 30.2947C23.7482 30.5141 23.3093 30.697 22.8339 30.8798C22.395 31.0261 22.0658 31.3919 21.9927 31.8673L21.4075 34.9028C21.371 35.0125 21.2978 35.0857 21.1881 35.1223C19.4326 35.4148 17.604 35.4148 15.8485 35.1223C15.7388 35.1223 15.6656 35.0125 15.629 34.9028L15.0439 31.8673C14.9707 31.3919 14.6416 31.0261 14.2027 30.8798C13.7273 30.7335 13.2518 30.5141 12.813 30.2947C12.6301 30.2215 12.4472 30.185 12.2644 30.185C12.0084 30.185 11.7524 30.2581 11.5329 30.4044L8.97283 32.1599C8.86311 32.233 8.7534 32.233 8.68025 32.1599C7.21735 31.0993 5.9373 29.8192 4.91327 28.3929C4.84013 28.3197 4.84013 28.1735 4.91327 28.1003L6.66876 25.5402C6.96134 25.1379 6.96134 24.5893 6.7419 24.187C6.48589 23.7482 6.3396 23.3459 6.22988 22.9801C6.12017 22.5047 5.71787 22.1024 5.20585 22.0293L2.17032 21.4441C2.06061 21.4075 1.98746 21.3344 1.95089 21.2247C1.8046 20.3469 1.73145 19.4326 1.73145 18.5549C1.73145 17.6771 1.8046 16.7628 1.95089 15.8851C1.95089 15.7753 2.06061 15.7022 2.17032 15.6656L5.20585 15.0805C5.64472 15.0073 6.04702 14.6782 6.19331 14.2393C6.3396 13.7638 6.55904 13.2884 6.77847 12.8495C6.96134 12.4472 6.92477 11.9352 6.66876 11.5695Z"/>
</mask>
<path d="M5.49843 14.0199C5.42529 14.2027 5.279 14.349 5.05956 14.3856L2.02403 14.9707C1.62173 15.0439 1.29258 15.373 1.21944 15.7753C1.07315 16.6897 1 17.6405 1 18.5549C1 19.4692 1.07315 20.4201 1.21944 21.3344C1.29258 21.7367 1.62173 22.0658 2.02403 22.139L5.05956 22.7241C5.279 22.7607 5.46186 22.9436 5.49843 23.1264C5.60815 23.5653 5.79101 24.0042 6.08359 24.5162C6.19331 24.6991 6.15674 24.9185 6.04702 25.1014L4.29154 27.6614C4.0721 28.0272 4.0721 28.466 4.29154 28.7952C5.38871 30.3312 6.70533 31.6479 8.24138 32.745C8.57053 33.001 9.04598 33.001 9.37513 32.745L11.9352 30.9896C12.1181 30.8798 12.3009 30.8798 12.4838 30.953C12.9592 31.1724 13.4713 31.3918 13.9467 31.5747C14.1296 31.6479 14.2759 31.7941 14.3124 32.0136L14.8976 35.0491C14.9707 35.4514 15.2999 35.7806 15.7022 35.8537C16.6165 36 17.5674 36.0731 18.4817 36.0731C19.396 36.0731 20.3469 36 21.2612 35.8537C21.6635 35.7806 21.9927 35.4514 22.0658 35.0491L22.651 32.0136C22.6876 31.7941 22.8339 31.6479 23.0167 31.5747C23.5287 31.3918 24.0042 31.209 24.4796 30.953C24.6625 30.8798 24.8453 30.8798 25.0282 30.9896L27.5883 32.745C27.954 32.9645 28.3929 32.9645 28.722 32.745C30.2581 31.6479 31.5747 30.3312 32.6719 28.7952C32.9279 28.466 32.9279 27.9906 32.6719 27.6614L30.9164 25.1014C30.8067 24.9551 30.8067 24.7356 30.8798 24.5528C31.0993 24.0773 31.3187 23.5653 31.5016 23.0533C31.5747 22.8704 31.721 22.7241 31.9404 22.6876L34.976 22.1024C35.3783 22.0293 35.7074 21.7001 35.7806 21.2978C35.9269 20.3835 36 19.4326 36 18.5183C36 17.604 35.9269 16.6531 35.7806 15.7388C35.7074 15.3365 35.3783 15.0073 34.976 14.9342L31.9404 14.349C31.7576 14.3124 31.5747 14.1661 31.5016 13.9833C31.3187 13.4713 31.1358 12.9958 30.8798 12.5204C30.8067 12.3375 30.8067 12.1181 30.9164 11.9718L32.6719 9.4117C32.8913 9.08255 32.8913 8.60711 32.6719 8.27795C31.5747 6.7419 30.2581 5.42529 28.722 4.32811C28.3929 4.0721 27.9174 4.0721 27.5883 4.32811L25.0282 6.08359C24.8819 6.19331 24.6625 6.22989 24.4796 6.12017C24.0042 5.90073 23.4922 5.6813 23.0167 5.49843C22.8339 5.42529 22.6876 5.279 22.651 5.05956L22.0658 2.02403C21.9927 1.62173 21.6635 1.29258 21.2612 1.21944C19.4326 0.926855 17.5308 0.926855 15.7022 1.21944C15.2999 1.29258 14.9707 1.62173 14.8976 2.02403L14.3124 5.05956C14.2759 5.279 14.1296 5.42529 13.9467 5.49843C13.4347 5.6813 12.9592 5.86416 12.4838 6.12017C12.3009 6.19331 12.1181 6.19331 11.9352 6.08359L9.37513 4.32811C9.0094 4.10867 8.57053 4.10867 8.24138 4.32811C6.70533 5.42529 5.38871 6.7419 4.29154 8.27795C4.03553 8.60711 4.03553 9.08255 4.29154 9.4117L6.04702 11.9718C6.15674 12.1181 6.19331 12.3375 6.08359 12.5204C5.86416 13.0324 5.6813 13.5078 5.49843 14.0199ZM6.66876 11.5695L4.91327 9.0094C4.84013 8.89969 4.84013 8.78997 4.91327 8.71682C5.97388 7.25392 7.25392 5.97388 8.68025 4.94984C8.7534 4.8767 8.89969 4.8767 8.97283 4.94984L11.5329 6.70533C11.8986 6.96134 12.4107 6.99791 12.813 6.81505C13.2518 6.59561 13.7273 6.41275 14.2027 6.22988C14.6416 6.08359 14.9707 5.71787 15.0439 5.24242L15.629 2.2069C15.6656 2.09718 15.7388 2.02403 15.8485 1.98746C17.604 1.69488 19.4326 1.69488 21.1881 1.98746C21.2978 1.98746 21.371 2.09718 21.4075 2.2069L21.9927 5.24242C22.0658 5.71787 22.395 6.08359 22.8339 6.22988C23.3093 6.37618 23.7847 6.59561 24.2236 6.81505C24.6259 6.99791 25.1379 6.96134 25.5037 6.70533L28.0637 4.94984C28.1735 4.8767 28.2832 4.8767 28.3563 4.94984C29.8192 6.01045 31.0993 7.29049 32.1233 8.71682C32.1964 8.78997 32.1964 8.93626 32.1233 9.0094L30.3678 11.5695C30.1118 11.9352 30.0752 12.4472 30.2581 12.8495C30.4775 13.325 30.697 13.8004 30.8433 14.2393C30.9895 14.6782 31.3553 15.0073 31.8307 15.0805L34.8662 15.6656C34.976 15.7022 35.0491 15.7753 35.0857 15.8851C35.232 16.7628 35.3051 17.6771 35.3051 18.5549C35.3051 19.4326 35.232 20.3469 35.0857 21.2247C35.0857 21.3344 34.976 21.4075 34.8662 21.4441L31.8307 22.0293C31.3553 22.1024 30.9895 22.4316 30.8433 22.8704C30.697 23.3459 30.4775 23.8213 30.2581 24.2602C30.0387 24.6625 30.0752 25.1745 30.3678 25.5402L32.1233 28.1003C32.1964 28.21 32.1964 28.3197 32.1233 28.3929C31.0627 29.8558 29.7827 31.1358 28.3563 32.1599C28.2832 32.233 28.1369 32.233 28.0637 32.1599L25.5037 30.4044C25.1379 30.1484 24.6259 30.1118 24.2236 30.2947C23.7482 30.5141 23.3093 30.697 22.8339 30.8798C22.395 31.0261 22.0658 31.3919 21.9927 31.8673L21.4075 34.9028C21.371 35.0125 21.2978 35.0857 21.1881 35.1223C19.4326 35.4148 17.604 35.4148 15.8485 35.1223C15.7388 35.1223 15.6656 35.0125 15.629 34.9028L15.0439 31.8673C14.9707 31.3919 14.6416 31.0261 14.2027 30.8798C13.7273 30.7335 13.2518 30.5141 12.813 30.2947C12.6301 30.2215 12.4472 30.185 12.2644 30.185C12.0084 30.185 11.7524 30.2581 11.5329 30.4044L8.97283 32.1599C8.86311 32.233 8.7534 32.233 8.68025 32.1599C7.21735 31.0993 5.9373 29.8192 4.91327 28.3929C4.84013 28.3197 4.84013 28.1735 4.91327 28.1003L6.66876 25.5402C6.96134 25.1379 6.96134 24.5893 6.7419 24.187C6.48589 23.7482 6.3396 23.3459 6.22988 22.9801C6.12017 22.5047 5.71787 22.1024 5.20585 22.0293L2.17032 21.4441C2.06061 21.4075 1.98746 21.3344 1.95089 21.2247C1.8046 20.3469 1.73145 19.4326 1.73145 18.5549C1.73145 17.6771 1.8046 16.7628 1.95089 15.8851C1.95089 15.7753 2.06061 15.7022 2.17032 15.6656L5.20585 15.0805C5.64472 15.0073 6.04702 14.6782 6.19331 14.2393C6.3396 13.7638 6.55904 13.2884 6.77847 12.8495C6.96134 12.4472 6.92477 11.9352 6.66876 11.5695Z" fill="#09000A"/>
<path d="M5.49843 14.0199C5.42529 14.2027 5.279 14.349 5.05956 14.3856L2.02403 14.9707C1.62173 15.0439 1.29258 15.373 1.21944 15.7753C1.07315 16.6897 1 17.6405 1 18.5549C1 19.4692 1.07315 20.4201 1.21944 21.3344C1.29258 21.7367 1.62173 22.0658 2.02403 22.139L5.05956 22.7241C5.279 22.7607 5.46186 22.9436 5.49843 23.1264C5.60815 23.5653 5.79101 24.0042 6.08359 24.5162C6.19331 24.6991 6.15674 24.9185 6.04702 25.1014L4.29154 27.6614C4.0721 28.0272 4.0721 28.466 4.29154 28.7952C5.38871 30.3312 6.70533 31.6479 8.24138 32.745C8.57053 33.001 9.04598 33.001 9.37513 32.745L11.9352 30.9896C12.1181 30.8798 12.3009 30.8798 12.4838 30.953C12.9592 31.1724 13.4713 31.3918 13.9467 31.5747C14.1296 31.6479 14.2759 31.7941 14.3124 32.0136L14.8976 35.0491C14.9707 35.4514 15.2999 35.7806 15.7022 35.8537C16.6165 36 17.5674 36.0731 18.4817 36.0731C19.396 36.0731 20.3469 36 21.2612 35.8537C21.6635 35.7806 21.9927 35.4514 22.0658 35.0491L22.651 32.0136C22.6876 31.7941 22.8339 31.6479 23.0167 31.5747C23.5287 31.3918 24.0042 31.209 24.4796 30.953C24.6625 30.8798 24.8453 30.8798 25.0282 30.9896L27.5883 32.745C27.954 32.9645 28.3929 32.9645 28.722 32.745C30.2581 31.6479 31.5747 30.3312 32.6719 28.7952C32.9279 28.466 32.9279 27.9906 32.6719 27.6614L30.9164 25.1014C30.8067 24.9551 30.8067 24.7356 30.8798 24.5528C31.0993 24.0773 31.3187 23.5653 31.5016 23.0533C31.5747 22.8704 31.721 22.7241 31.9404 22.6876L34.976 22.1024C35.3783 22.0293 35.7074 21.7001 35.7806 21.2978C35.9269 20.3835 36 19.4326 36 18.5183C36 17.604 35.9269 16.6531 35.7806 15.7388C35.7074 15.3365 35.3783 15.0073 34.976 14.9342L31.9404 14.349C31.7576 14.3124 31.5747 14.1661 31.5016 13.9833C31.3187 13.4713 31.1358 12.9958 30.8798 12.5204C30.8067 12.3375 30.8067 12.1181 30.9164 11.9718L32.6719 9.4117C32.8913 9.08255 32.8913 8.60711 32.6719 8.27795C31.5747 6.7419 30.2581 5.42529 28.722 4.32811C28.3929 4.0721 27.9174 4.0721 27.5883 4.32811L25.0282 6.08359C24.8819 6.19331 24.6625 6.22989 24.4796 6.12017C24.0042 5.90073 23.4922 5.6813 23.0167 5.49843C22.8339 5.42529 22.6876 5.279 22.651 5.05956L22.0658 2.02403C21.9927 1.62173 21.6635 1.29258 21.2612 1.21944C19.4326 0.926855 17.5308 0.926855 15.7022 1.21944C15.2999 1.29258 14.9707 1.62173 14.8976 2.02403L14.3124 5.05956C14.2759 5.279 14.1296 5.42529 13.9467 5.49843C13.4347 5.6813 12.9592 5.86416 12.4838 6.12017C12.3009 6.19331 12.1181 6.19331 11.9352 6.08359L9.37513 4.32811C9.0094 4.10867 8.57053 4.10867 8.24138 4.32811C6.70533 5.42529 5.38871 6.7419 4.29154 8.27795C4.03553 8.60711 4.03553 9.08255 4.29154 9.4117L6.04702 11.9718C6.15674 12.1181 6.19331 12.3375 6.08359 12.5204C5.86416 13.0324 5.6813 13.5078 5.49843 14.0199ZM6.66876 11.5695L4.91327 9.0094C4.84013 8.89969 4.84013 8.78997 4.91327 8.71682C5.97388 7.25392 7.25392 5.97388 8.68025 4.94984C8.7534 4.8767 8.89969 4.8767 8.97283 4.94984L11.5329 6.70533C11.8986 6.96134 12.4107 6.99791 12.813 6.81505C13.2518 6.59561 13.7273 6.41275 14.2027 6.22988C14.6416 6.08359 14.9707 5.71787 15.0439 5.24242L15.629 2.2069C15.6656 2.09718 15.7388 2.02403 15.8485 1.98746C17.604 1.69488 19.4326 1.69488 21.1881 1.98746C21.2978 1.98746 21.371 2.09718 21.4075 2.2069L21.9927 5.24242C22.0658 5.71787 22.395 6.08359 22.8339 6.22988C23.3093 6.37618 23.7847 6.59561 24.2236 6.81505C24.6259 6.99791 25.1379 6.96134 25.5037 6.70533L28.0637 4.94984C28.1735 4.8767 28.2832 4.8767 28.3563 4.94984C29.8192 6.01045 31.0993 7.29049 32.1233 8.71682C32.1964 8.78997 32.1964 8.93626 32.1233 9.0094L30.3678 11.5695C30.1118 11.9352 30.0752 12.4472 30.2581 12.8495C30.4775 13.325 30.697 13.8004 30.8433 14.2393C30.9895 14.6782 31.3553 15.0073 31.8307 15.0805L34.8662 15.6656C34.976 15.7022 35.0491 15.7753 35.0857 15.8851C35.232 16.7628 35.3051 17.6771 35.3051 18.5549C35.3051 19.4326 35.232 20.3469 35.0857 21.2247C35.0857 21.3344 34.976 21.4075 34.8662 21.4441L31.8307 22.0293C31.3553 22.1024 30.9895 22.4316 30.8433 22.8704C30.697 23.3459 30.4775 23.8213 30.2581 24.2602C30.0387 24.6625 30.0752 25.1745 30.3678 25.5402L32.1233 28.1003C32.1964 28.21 32.1964 28.3197 32.1233 28.3929C31.0627 29.8558 29.7827 31.1358 28.3563 32.1599C28.2832 32.233 28.1369 32.233 28.0637 32.1599L25.5037 30.4044C25.1379 30.1484 24.6259 30.1118 24.2236 30.2947C23.7482 30.5141 23.3093 30.697 22.8339 30.8798C22.395 31.0261 22.0658 31.3919 21.9927 31.8673L21.4075 34.9028C21.371 35.0125 21.2978 35.0857 21.1881 35.1223C19.4326 35.4148 17.604 35.4148 15.8485 35.1223C15.7388 35.1223 15.6656 35.0125 15.629 34.9028L15.0439 31.8673C14.9707 31.3919 14.6416 31.0261 14.2027 30.8798C13.7273 30.7335 13.2518 30.5141 12.813 30.2947C12.6301 30.2215 12.4472 30.185 12.2644 30.185C12.0084 30.185 11.7524 30.2581 11.5329 30.4044L8.97283 32.1599C8.86311 32.233 8.7534 32.233 8.68025 32.1599C7.21735 31.0993 5.9373 29.8192 4.91327 28.3929C4.84013 28.3197 4.84013 28.1735 4.91327 28.1003L6.66876 25.5402C6.96134 25.1379 6.96134 24.5893 6.7419 24.187C6.48589 23.7482 6.3396 23.3459 6.22988 22.9801C6.12017 22.5047 5.71787 22.1024 5.20585 22.0293L2.17032 21.4441C2.06061 21.4075 1.98746 21.3344 1.95089 21.2247C1.8046 20.3469 1.73145 19.4326 1.73145 18.5549C1.73145 17.6771 1.8046 16.7628 1.95089 15.8851C1.95089 15.7753 2.06061 15.7022 2.17032 15.6656L5.20585 15.0805C5.64472 15.0073 6.04702 14.6782 6.19331 14.2393C6.3396 13.7638 6.55904 13.2884 6.77847 12.8495C6.96134 12.4472 6.92477 11.9352 6.66876 11.5695Z" stroke="black" stroke-width="0.8" mask="url(#path-1-outside-1_489_762)"/>
<path d="M23.0915 17.7309C23.2467 17.7309 23.3915 17.6783 23.4981 17.5718C23.6046 17.4652 23.6572 17.3203 23.6572 17.1652C23.6572 16.727 24.0065 16.3777 24.4447 16.3777C24.5998 16.3777 24.7447 16.3251 24.8512 16.2186C24.9578 16.112 25.0104 15.9672 25.0104 15.812C25.0104 15.6568 24.9578 15.512 24.8512 15.4054C24.7447 15.2989 24.5998 15.2463 24.4447 15.2463C23.3833 15.2463 22.5258 16.1038 22.5258 17.1652C22.5258 17.3217 22.602 17.4614 22.6986 17.558C22.7953 17.6547 22.935 17.7309 23.0915 17.7309ZM21.9943 14.9514C22.1495 14.9514 22.2943 14.8988 22.4009 14.7922C22.5074 14.6857 22.56 14.5408 22.56 14.3857C22.56 14.2305 22.5074 14.0856 22.4009 13.9791C22.2943 13.8725 22.1495 13.8199 21.9943 13.8199C21.5562 13.8199 21.2068 13.4706 21.2068 13.0325C21.2068 12.8773 21.1542 12.7325 21.0477 12.6259C20.9411 12.5193 20.7963 12.4667 20.6411 12.4667C20.4859 12.4667 20.3411 12.5193 20.2345 12.6259C20.128 12.7325 20.0754 12.8773 20.0754 13.0325C20.0754 14.0938 20.933 14.9514 21.9943 14.9514ZM21.9943 22.6705C20.933 22.6705 20.0754 23.5281 20.0754 24.5894C20.0754 24.7446 20.128 24.8894 20.2345 24.996C20.3411 25.1026 20.4859 25.1551 20.6411 25.1551C20.7963 25.1551 20.9411 25.1026 21.0477 24.996C21.1542 24.8894 21.2068 24.7446 21.2068 24.5894C21.2068 24.1513 21.5562 23.802 21.9943 23.802C22.1495 23.802 22.2943 23.7494 22.4009 23.6428C22.5074 23.5363 22.56 23.3914 22.56 23.2362C22.56 23.0811 22.5074 22.9362 22.4009 22.8297C22.2943 22.7231 22.1495 22.6705 21.9943 22.6705ZM24.335 22.0099C24.4901 22.0099 24.635 21.9573 24.7415 21.8508C24.8481 21.7442 24.9007 21.5993 24.9007 21.4442C24.9007 21.289 24.8481 21.1442 24.7415 21.0376C24.635 20.931 24.4901 20.8785 24.335 20.8785C23.8968 20.8785 23.5475 20.5291 23.5475 20.091C23.5475 19.9358 23.4949 19.791 23.3883 19.6844C23.2818 19.5779 23.1369 19.5253 22.9818 19.5253C22.8266 19.5253 22.6817 19.5779 22.5752 19.6844C22.4686 19.791 22.416 19.9358 22.416 20.091C22.416 21.113 23.2709 22.0099 24.335 22.0099Z" fill="#09000A" stroke="black" stroke-width="0.4"/>
<path d="M19.1187 23.9668V16.9101C19.4291 17.076 19.802 17.1815 20.2353 17.1815C20.5448 17.1815 20.8625 17.1427 21.1833 17.0224L21.1833 17.0225L21.1873 17.0209C21.4594 16.912 21.6375 16.5837 21.5182 16.2855C21.4099 16.0147 21.0842 15.837 20.787 15.9529C20.2756 16.1335 19.885 16.057 19.6025 15.9157C19.3506 15.7898 19.1762 15.6077 19.0821 15.4884V13.1441C19.1173 11.8954 20.1301 10.891 21.3325 10.891C22.3365 10.891 23.2078 11.5585 23.4787 12.5302C23.5427 12.8271 23.837 12.9907 24.1147 12.9352L24.1269 12.9327L24.1387 12.9288C24.2114 12.9045 24.3221 12.9025 24.4412 12.9025C25.6819 12.9025 26.655 13.9081 26.655 15.1163C26.655 15.3911 26.6208 15.6183 26.5249 15.8421L26.5248 15.8421L26.523 15.8466C26.4013 16.1507 26.5886 16.4319 26.8021 16.5386L26.8021 16.5386L26.8053 16.5402C27.5786 16.91 28.0813 17.6821 28.0813 18.5541C28.0813 19.4268 27.5786 20.2315 26.7755 20.6014C26.4773 20.7242 26.3808 21.0676 26.4855 21.3326C26.5895 21.6102 26.655 21.8777 26.655 22.1748C26.655 23.5188 25.41 24.6226 24.0411 24.3558C23.7762 24.3031 23.4804 24.4514 23.4086 24.7129C23.1052 25.5797 22.2687 26.1806 21.3325 26.1806C20.0917 26.1806 19.1187 25.175 19.1187 23.9668ZM17.9507 13.1413V20.3119C17.3765 20.0644 16.6219 19.9926 15.7909 20.4247L15.7907 20.4244L15.7803 20.4307C15.5181 20.588 15.39 20.9248 15.5654 21.2171C15.7219 21.4779 16.056 21.6059 16.3471 21.4347C16.8075 21.1893 17.1671 21.2125 17.4319 21.3108C17.6674 21.3983 17.8428 21.5511 17.9507 21.6661V24.0034C17.9507 25.2442 16.945 26.2172 15.7369 26.2172C14.8008 26.2172 13.9643 25.6163 13.6609 24.7497C13.5977 24.5172 13.3726 24.352 13.1402 24.352H13.0671H13.0478L13.0288 24.3557C11.6596 24.6229 10.4144 23.5189 10.4144 22.1748C10.4144 21.8776 10.4799 21.6101 10.5839 21.3325C10.6885 21.0675 10.5921 20.7242 10.2939 20.6014C9.48925 20.2309 8.98809 19.4616 8.98809 18.5541C8.98809 17.757 9.48856 16.9502 10.2591 16.5792C10.5357 16.464 10.6591 16.1367 10.5487 15.8872C10.4766 15.6346 10.4144 15.4083 10.4144 15.1528C10.4144 13.9121 11.4201 12.939 12.6282 12.939C12.7473 12.939 12.858 12.9411 12.9307 12.9653L12.9425 12.9693L12.9547 12.9717C13.2324 13.0273 13.5267 12.8636 13.5907 12.5668C13.8616 11.5951 14.7328 10.9275 15.7369 10.9275C16.9777 10.9275 17.9507 11.9332 17.9507 13.1413ZM7.85664 18.5907C7.85664 19.7416 8.42594 20.8272 9.40149 21.4317C9.34694 21.6911 9.31955 21.951 9.31955 22.2114C9.31955 24.1128 10.9163 25.6395 12.8366 25.564C13.4049 26.6617 14.5373 27.3487 15.81 27.3487C16.9677 27.3487 17.9983 26.7482 18.5896 25.8594C19.1808 26.7482 20.2114 27.3487 21.3691 27.3487C22.6053 27.3487 23.7712 26.6628 24.3424 25.564C26.2627 25.6395 27.8596 24.1128 27.8596 22.2114C27.8596 21.9502 27.832 21.6895 27.7771 21.4294C28.7177 20.8265 29.3225 19.7445 29.3225 18.5907C29.3225 17.4393 28.7533 16.3905 27.8151 15.7894C27.8596 15.568 27.8596 15.3674 27.8596 15.1619V15.1528C27.8596 13.2854 26.3422 11.8076 24.5143 11.8076H24.4646C23.929 10.5951 22.7214 9.79609 21.3691 9.79609C20.2114 9.79609 19.1808 10.3966 18.5896 11.2853C17.9983 10.3966 16.9677 9.79609 15.81 9.79609C14.4577 9.79609 13.2501 10.5951 12.7145 11.8076H12.6648C10.7973 11.8076 9.31955 13.325 9.31955 15.1528C9.31955 15.3731 9.34484 15.5909 9.374 15.7832C8.42892 16.3864 7.85664 17.4715 7.85664 18.5907Z" fill="#09000A" stroke="black" stroke-width="0.4"/>
<path d="M12.6294 16.3411C13.0675 16.3411 13.4169 16.6905 13.4169 17.1286C13.4169 17.2838 13.4695 17.4286 13.576 17.5352C13.6826 17.6417 13.8274 17.6943 13.9826 17.6943C14.1378 17.6943 14.2826 17.6417 14.3892 17.5352C14.4957 17.4286 14.5483 17.2838 14.5483 17.1286C14.5483 16.0673 13.6907 15.2097 12.6294 15.2097C12.4742 15.2097 12.3294 15.2623 12.2228 15.3688C12.1163 15.4754 12.0637 15.6203 12.0637 15.7754C12.0637 16.1181 12.3493 16.3411 12.6294 16.3411ZM15.1163 14.9514C16.1777 14.9514 17.0352 14.0938 17.0352 13.0325C17.0352 12.8773 16.9827 12.7325 16.8761 12.6259C16.7695 12.5193 16.6247 12.4667 16.4695 12.4667C16.3144 12.4667 16.1695 12.5193 16.063 12.6259C15.9564 12.7325 15.9038 12.8773 15.9038 13.0325C15.9038 13.4706 15.5545 13.8199 15.1163 13.8199C14.9612 13.8199 14.8163 13.8725 14.7098 13.9791C14.6032 14.0856 14.5506 14.2305 14.5506 14.3857C14.5506 14.5408 14.6032 14.6857 14.7098 14.7922C14.8163 14.8988 14.9612 14.9514 15.1163 14.9514ZM15.1163 23.802C15.5545 23.802 15.9038 24.1513 15.9038 24.5894C15.9038 24.7446 15.9564 24.8894 16.063 24.996C16.1695 25.1026 16.3144 25.1551 16.4695 25.1551C16.6247 25.1551 16.7695 25.1026 16.8761 24.996C16.9827 24.8894 17.0352 24.7446 17.0352 24.5894C17.0352 23.5281 16.1777 22.6705 15.1163 22.6705C14.9612 22.6705 14.8163 22.7231 14.7098 22.8297C14.6032 22.9362 14.5506 23.0811 14.5506 23.2362C14.5506 23.3914 14.6032 23.5363 14.7098 23.6428C14.8163 23.7494 14.9612 23.802 15.1163 23.802ZM13.5632 20.0544C13.5632 20.4925 13.2138 20.8419 12.7757 20.8419C12.6205 20.8419 12.4757 20.8945 12.3691 21.001C12.2626 21.1076 12.21 21.2524 12.21 21.4076C12.21 21.5628 12.2626 21.7076 12.3691 21.8142C12.4757 21.9207 12.6205 21.9733 12.7757 21.9733C13.837 21.9733 14.6946 21.1158 14.6946 20.0544C14.6946 19.8993 14.642 19.7544 14.5354 19.6478C14.4289 19.5413 14.284 19.4887 14.1289 19.4887C13.7862 19.4887 13.5632 19.7743 13.5632 20.0544Z" fill="#09000A" stroke="black" stroke-width="0.4"/>
</svg>
