<?xml version="1.0" encoding="UTF-8"?>
<svg id="Layer_5" data-name="Layer 5" xmlns="http://www.w3.org/2000/svg" viewBox="0 0 11552.11 8367.87">
  <defs>
    <style>
      .cls-1 {
        fill: #3e4e6b;
      }

      .cls-2 {
        fill: #758cba;
      }

      .cls-3 {
        fill: #f7a097;
      }

      .cls-4 {
        fill: #ed7272;
      }
    </style>
  </defs>
  <path class="cls-1" d="M3177.55,1151.83s-767.87,553.32-474.27,1355.06c293.6,801.75,993.71,1027.59,993.71,1027.59,0,0,342.53,90.34,575.9,90.34,0,0,666.24,207.02,764.11,884.56,97.87,677.53-233.37,1061.47-613.54,1245.91,0,0-210.79,135.51-647.42,105.39l-1404-11.29s485.56-304.89,421.58-1230.85c0,0-47.05-854.44-922.2-1108.52,0,0-638.01,11.29-1033.24-287.95-395.23-299.24-502.5-779.16-457.33-1067.11,0,0,101.63-875.15,1044.53-993.71l1752.17-9.41Z"/>
  <circle class="cls-2" cx="1457.37" cy="4801.09" r="1038.88"/>
  <circle class="cls-2" cx="4058.34" cy="2200.12" r="1038.88"/>
  <path class="cls-3" d="M9668.33,4135.28s1243.92,733.48,1501.28,793.54l4.29,802.11s21.45,98.66-201.6,94.37c-223.05-4.29-1582.78-8.58-1582.78-8.58,0,0-154.42,34.32-137.26-248.78,17.16-283.1-12.87-870.74,416.07-1432.65Z"/>
  <path class="cls-4" d="M11161.03,2711.21l-1475.55,1415.5s673.43,742.06,1488.41,814.98l-12.87-2230.48Z"/>
  <path class="cls-3" d="M9474.77,1351.47s25.74,1698.59-180.15,2230.48c0,0,446.1-686.3,540.46-754.93,94.37-68.63,540.46-188.73,514.73,274.52,0,0,25.74,85.79-343.15,549.04,0,0-300.26,428.94-325.99,488.99-25.74,60.05,368.89-265.94,557.62-334.57,188.73-68.63,806.4-729.19,926.51-1063.77v-1355.44s128.68-171.58-214.47-180.15c-343.15-8.58-840.72-68.63-1475.55,145.84Z"/>
  <path class="cls-3" d="M5438.46,2711.21l463.25,797.82,341.01,302.4,411.78,193.02,353.87,225.19s-636.97-939.37-720.62-1003.71c0,0-147.98-527.59,386.04-463.25,0,0,147.98-32.17,527.59,643.41,0,0-199.46-1724.33-77.21-2039.6,0,0-334.57-167.29-649.84-160.85-315.27,6.43-913.64-6.43-913.64-6.43,0,0-122.25-12.87-122.25,147.98v1364.02Z"/>
  <path class="cls-4" d="M7333.83,5202.26c-85.79-703.45-257.36-1012.29-634.83-1243.92-377.46-231.63-514.72-171.58-849.3-651.99-334.57-480.41-401.06-583.36-401.06-583.36l-.04-1.41c-2.33.09-4.55.34-6.93.34-1.29,0-2.48-.16-3.75-.18v2918.04s-42.89,180.15,128.68,163l1638.54,8.58s214.47,94.37,128.68-609.09Z"/>
  <path class="cls-4" d="M9494.08,1364.34s-443.95,107.24-907.2,924.36c-53.88,127.1-151.9,214.94-254.08,215.42-67.77.32-123.75-37.86-157.7-61.01-86.92-59.29-128.77-135.36-154.42-180.15,0,0-58.65-102.47-238.06-353.88-111.67-156.47-195.27-256.49-328.14-360.3-126.68-98.97-248.45-155.98-332.43-188.74l-60.05,137.26-30.03,231.62s25.74,488.99,25.74,501.86,30.02,351.73,30.02,386.04,34.31,403.21,34.31,403.21l81.5,381.76c156.84,209.94,277.06,381.42,358.16,499.71,95.7,139.55,141.43,211.54,240.21,287.38,66.86,51.34,201.98,138.19,390.34,163,283.02,37.28,497.35-90.41,559.76-130.83,85.6-72.3,193-173.37,302.4-306.69,0,0,176.86-215.53,306.69-482.56,164.42-338.16,282.88-1103.25,132.97-2067.48ZM8331.12,3845.86c-249.28,0-451.36-202.09-451.36-451.36s202.08-451.36,451.36-451.36,451.36,202.09,451.36,451.36-202.08,451.36-451.36,451.36Z"/>
  <path class="cls-1" d="M626.79,7104.75l42.55-89.7c59.8,54.05,162.16,93.15,265.67,93.15,139.16,0,198.96-54.05,198.96-124.21,0-196.66-487.63-72.45-487.63-371.47,0-124.21,96.61-230.01,308.22-230.01,94.31,0,192.06,25.3,258.76,71.31l-37.95,92.01c-70.15-44.85-149.51-65.55-220.81-65.55-136.86,0-195.51,57.5-195.51,127.66,0,196.66,487.63,73.6,487.63,369.17,0,123.06-98.91,228.86-311.67,228.86-123.06,0-243.81-41.4-308.22-101.21Z"/>
  <path class="cls-1" d="M1927.52,6995.49h-427.82l-88.55,201.26h-118.46l364.57-805.05h113.86l365.72,805.05h-120.76l-88.56-201.26ZM1887.27,6903.49l-173.66-394.47-173.66,394.47h347.32Z"/>
  <path class="cls-1" d="M2906.26,6672.32c0,174.81-126.51,280.62-335.82,280.62h-198.96v243.81h-115.01v-805.05h313.97c209.31,0,335.82,105.81,335.82,280.62ZM2791.25,6672.32c0-115.01-77.06-180.56-224.26-180.56h-195.51v361.12h195.51c147.21,0,224.26-65.55,224.26-180.56Z"/>
  <path class="cls-1" d="M3075.34,6391.71h115.01v805.05h-115.01v-805.05Z"/>
  <path class="cls-1" d="M4016.1,7096.7v100.06h-584.23v-805.05h568.13v100.06h-453.12v247.27h403.67v97.75h-403.67v259.92h469.23Z"/>
  <path class="cls-1" d="M4894.78,6391.71v805.05h-94.3l-483.03-600.34v600.34h-115.01v-805.05h94.3l483.03,600.33v-600.33h115.01Z"/>
  <path class="cls-1" d="M5070.78,6794.23c0-238.07,181.71-411.72,426.67-411.72,124.21,0,232.31,42.55,305.92,125.36l-74.75,72.45c-62.1-65.55-138.01-95.45-226.56-95.45-181.71,0-316.27,131.11-316.27,309.37s134.56,309.37,316.27,309.37c88.56,0,164.46-31.05,226.56-96.61l74.75,72.46c-73.6,82.8-181.71,126.51-307.07,126.51-243.81,0-425.52-173.66-425.52-411.72Z"/>
  <path class="cls-1" d="M6552.08,7096.7v100.06h-584.23v-805.05h568.13v100.06h-453.12v247.27h403.67v97.75h-403.67v259.92h469.23Z"/>
  <path class="cls-4" d="M7794.19,7196.75l-1.15-586.53-290.97,488.78h-52.9l-290.97-485.33v583.08h-110.41v-805.05h94.3l335.82,565.83,331.22-565.83h94.31l1.15,805.05h-110.41Z"/>
  <path class="cls-4" d="M8146.14,6391.71h115.01v805.05h-115.01v-805.05Z"/>
  <path class="cls-4" d="M9195.01,6391.71v805.05h-94.3l-483.03-600.34v600.34h-115.01v-805.05h94.3l483.03,600.33v-600.33h115.01Z"/>
  <path class="cls-4" d="M9436.56,6391.71h339.27c258.77,0,434.73,163.31,434.73,402.52s-175.96,402.52-434.73,402.52h-339.27v-805.05ZM9768.93,7096.7c198.96,0,326.62-121.91,326.62-302.47s-127.66-302.47-326.62-302.47h-217.36v604.94h217.36Z"/>
  <path class="cls-4" d="M10312.94,7104.75l42.55-89.7c59.8,54.05,162.16,93.15,265.66,93.15,139.16,0,198.96-54.05,198.96-124.21,0-196.66-487.63-72.45-487.63-371.47,0-124.21,96.61-230.01,308.22-230.01,94.3,0,192.06,25.3,258.76,71.31l-37.95,92.01c-70.15-44.85-149.51-65.55-220.81-65.55-136.86,0-195.51,57.5-195.51,127.66,0,196.66,487.63,73.6,487.63,369.17,0,123.06-98.9,228.86-311.67,228.86-123.06,0-243.81-41.4-308.22-101.21Z"/>
</svg>